<svg xmlns="http://www.w3.org/2000/svg" xmlns:xlink="http://www.w3.org/1999/xlink" xmlns:inkscape="http://www.inkscape.org/namespaces/inkscape" version="1.1" width="432" height="360" viewBox="0 0 432 360">
<defs>
<clipPath id="clip_1">
<path transform="matrix(1,0,0,-1,0,360)" d="M58.760625 51.291875H416.88V344.88H58.760625Z"/>
</clipPath>
<clipPath id="clip_2">
<path transform="matrix(1,0,0,-1,0,360)" d="M58.760625 51.291875H416.88V344.88H58.760625Z"/>
</clipPath>
<clipPath id="clip_3">
<path transform="matrix(1,0,0,-1,0,360)" d="M58.760625 51.291875H416.88V344.88H58.760625Z"/>
</clipPath>
<clipPath id="clip_4">
<path transform="matrix(1,0,0,-1,0,360)" d="M58.760625 51.291875H416.88V344.88H58.760625Z"/>
</clipPath>
<clipPath id="clip_5">
<path transform="matrix(1,0,0,-1,0,360)" d="M58.760625 51.291875H416.88V344.88H58.760625Z"/>
</clipPath>
<clipPath id="clip_6">
<path transform="matrix(1,0,0,-1,0,360)" d="M58.760625 51.291875H416.88V344.88H58.760625Z"/>
</clipPath>
<clipPath id="clip_7">
<path transform="matrix(1,0,0,-1,0,360)" d="M58.760625 51.291875H416.88V344.88H58.760625Z"/>
</clipPath>
<clipPath id="clip_8">
<path transform="matrix(1,0,0,-1,0,360)" d="M58.760625 51.291875H416.88V344.88H58.760625Z"/>
</clipPath>
<clipPath id="clip_9">
<path transform="matrix(1,0,0,-1,0,360)" d="M58.760625 51.291875H416.88V344.88H58.760625Z"/>
</clipPath>
<clipPath id="clip_10">
<path transform="matrix(1,0,0,-1,0,360)" d="M58.760625 51.291875H416.88V344.88H58.760625Z"/>
</clipPath>
<clipPath id="clip_11">
<path transform="matrix(1,0,0,-1,0,360)" d="M58.760625 51.291875H416.88V344.88H58.760625Z"/>
</clipPath>
<clipPath id="clip_12">
<path transform="matrix(1,0,0,-1,0,360)" d="M58.760625 51.291875H416.88V344.88H58.760625Z"/>
</clipPath>
<clipPath id="clip_13">
<path transform="matrix(1,0,0,-1,0,360)" d="M58.760625 51.291875H416.88V344.88H58.760625Z"/>
</clipPath>
<clipPath id="clip_14">
<path transform="matrix(1,0,0,-1,0,360)" d="M58.760625 51.291875H416.88V344.88H58.760625Z"/>
</clipPath>
<clipPath id="clip_15">
<path transform="matrix(1,0,0,-1,0,360)" d="M58.760625 51.291875H416.88V344.88H58.760625Z"/>
</clipPath>
<clipPath id="clip_16">
<path transform="matrix(1,0,0,-1,0,360)" d="M58.760625 51.291875H416.88V344.88H58.760625Z"/>
</clipPath>
<clipPath id="clip_17">
<path transform="matrix(1,0,0,-1,0,360)" d="M58.760625 51.291875H416.88V344.88H58.760625Z"/>
</clipPath>
<clipPath id="clip_18">
<path transform="matrix(1,0,0,-1,0,360)" d="M58.760625 51.291875H416.88V344.88H58.760625Z"/>
</clipPath>
<clipPath id="clip_19">
<path transform="matrix(1,0,0,-1,0,360)" d="M58.760625 51.291875H416.88V344.88H58.760625Z"/>
</clipPath>
<clipPath id="clip_20">
<path transform="matrix(1,0,0,-1,0,360)" d="M58.760625 51.291875H416.88V344.88H58.760625Z"/>
</clipPath>
<clipPath id="clip_21">
<path transform="matrix(1,0,0,-1,0,360)" d="M58.760625 51.291875H416.88V344.88H58.760625Z"/>
</clipPath>
<clipPath id="clip_22">
<path transform="matrix(1,0,0,-1,0,360)" d="M58.760625 51.291875H416.88V344.88H58.760625Z"/>
</clipPath>
<clipPath id="clip_23">
<path transform="matrix(1,0,0,-1,0,360)" d="M58.760625 51.291875H416.88V344.88H58.760625Z"/>
</clipPath>
<clipPath id="clip_24">
<path transform="matrix(1,0,0,-1,0,360)" d="M58.760625 51.291875H416.88V344.88H58.760625Z"/>
</clipPath>
<clipPath id="clip_25">
<path transform="matrix(1,0,0,-1,0,360)" d="M58.760625 51.291875H416.88V344.88H58.760625Z"/>
</clipPath>
<clipPath id="clip_26">
<path transform="matrix(1,0,0,-1,0,360)" d="M58.760625 51.291875H416.88V344.88H58.760625Z"/>
</clipPath>
<clipPath id="clip_27">
<path transform="matrix(1,0,0,-1,0,360)" d="M58.760625 51.291875H416.88V344.88H58.760625Z"/>
</clipPath>
<clipPath id="clip_28">
<path transform="matrix(1,0,0,-1,0,360)" d="M58.760625 51.291875H416.88V344.88H58.760625Z"/>
</clipPath>
<clipPath id="clip_29">
<path transform="matrix(1,0,0,-1,0,360)" d="M58.760625 51.291875H416.88V344.88H58.760625Z"/>
</clipPath>
<clipPath id="clip_30">
<path transform="matrix(1,0,0,-1,0,360)" d="M58.760625 51.291875H416.88V344.88H58.760625Z"/>
</clipPath>
<clipPath id="clip_31">
<path transform="matrix(1,0,0,-1,0,360)" d="M58.760625 51.291875H416.88V344.88H58.760625Z"/>
</clipPath>
<clipPath id="clip_32">
<path transform="matrix(1,0,0,-1,0,360)" d="M58.760625 51.291875H416.88V344.88H58.760625Z"/>
</clipPath>
<clipPath id="clip_33">
<path transform="matrix(1,0,0,-1,0,360)" d="M58.760625 51.291875H416.88V344.88H58.760625Z"/>
</clipPath>
<clipPath id="clip_34">
<path transform="matrix(1,0,0,-1,0,360)" d="M58.760625 51.291875H416.88V344.88H58.760625Z"/>
</clipPath>
<clipPath id="clip_35">
<path transform="matrix(1,0,0,-1,0,360)" d="M58.760625 51.291875H416.88V344.88H58.760625Z"/>
</clipPath>
<clipPath id="clip_36">
<path transform="matrix(1,0,0,-1,0,360)" d="M58.760625 51.291875H416.88V344.88H58.760625Z"/>
</clipPath>
<clipPath id="clip_37">
<path transform="matrix(1,0,0,-1,0,360)" d="M58.760625 51.291875H416.88V344.88H58.760625Z"/>
</clipPath>
<clipPath id="clip_38">
<path transform="matrix(1,0,0,-1,0,360)" d="M58.760625 51.291875H416.88V344.88H58.760625Z"/>
</clipPath>
<clipPath id="clip_39">
<path transform="matrix(1,0,0,-1,0,360)" d="M58.760625 51.291875H416.88V344.88H58.760625Z"/>
</clipPath>
<clipPath id="clip_40">
<path transform="matrix(1,0,0,-1,0,360)" d="M58.760625 51.291875H416.88V344.88H58.760625Z"/>
</clipPath>
<clipPath id="clip_41">
<path transform="matrix(1,0,0,-1,0,360)" d="M58.760625 51.291875H416.88V344.88H58.760625Z"/>
</clipPath>
<clipPath id="clip_42">
<path transform="matrix(1,0,0,-1,0,360)" d="M58.760625 51.291875H416.88V344.88H58.760625Z"/>
</clipPath>
<clipPath id="clip_43">
<path transform="matrix(1,0,0,-1,0,360)" d="M58.760625 51.291875H416.88V344.88H58.760625Z"/>
</clipPath>
<clipPath id="clip_44">
<path transform="matrix(1,0,0,-1,0,360)" d="M58.760625 51.291875H416.88V344.88H58.760625Z"/>
</clipPath>
<clipPath id="clip_45">
<path transform="matrix(1,0,0,-1,0,360)" d="M58.760625 51.291875H416.88V344.88H58.760625Z"/>
</clipPath>
<clipPath id="clip_46">
<path transform="matrix(1,0,0,-1,0,360)" d="M58.760625 51.291875H416.88V344.88H58.760625Z"/>
</clipPath>
<clipPath id="clip_47">
<path transform="matrix(1,0,0,-1,0,360)" d="M58.760625 51.291875H416.88V344.88H58.760625Z"/>
</clipPath>
<clipPath id="clip_48">
<path transform="matrix(1,0,0,-1,0,360)" d="M58.760625 51.291875H416.88V344.88H58.760625Z"/>
</clipPath>
<clipPath id="clip_49">
<path transform="matrix(1,0,0,-1,0,360)" d="M58.760625 51.291875H416.88V344.88H58.760625Z"/>
</clipPath>
<clipPath id="clip_50">
<path transform="matrix(1,0,0,-1,0,360)" d="M58.760625 51.291875H416.88V344.88H58.760625Z"/>
</clipPath>
<clipPath id="clip_51">
<path transform="matrix(1,0,0,-1,0,360)" d="M58.760625 51.291875H416.88V344.88H58.760625Z"/>
</clipPath>
<clipPath id="clip_52">
<path transform="matrix(1,0,0,-1,75.03878,237.41385)" d="M-9-9H9V9H-9Z"/>
</clipPath>
<clipPath id="clip_53">
<path transform="matrix(1,0,0,-1,140.1514,177.73792)" d="M-9-9H9V9H-9Z"/>
</clipPath>
<clipPath id="clip_54">
<path transform="matrix(1,0,0,-1,205.264,161.65108)" d="M-9-9H9V9H-9Z"/>
</clipPath>
<clipPath id="clip_55">
<path transform="matrix(1,0,0,-1,270.37663,145.66745)" d="M-9-9H9V9H-9Z"/>
</clipPath>
<clipPath id="clip_56">
<path transform="matrix(1,0,0,-1,335.48924,129.56845)" d="M-9-9H9V9H-9Z"/>
</clipPath>
<clipPath id="clip_57">
<path transform="matrix(1,0,0,-1,400.60185,113.65307)" d="M-9-9H9V9H-9Z"/>
</clipPath>
<clipPath id="clip_58">
<path transform="matrix(1,0,0,-1,0,360)" d="M58.760625 51.291875H416.88V344.88H58.760625Z"/>
</clipPath>
</defs>
<path transform="matrix(1,0,0,-1,0,360)" d="M0 0H432V360H0Z" fill="#ffffff"/>
<path transform="matrix(1,0,0,-1,0,360)" d="M58.760625 51.291875H416.88V344.88H58.760625Z" fill="#ffffff"/>
<g clip-path="url(#clip_1)">
<path transform="matrix(1,0,0,-1,0,360)" stroke-width=".75" stroke-linecap="square" stroke-linejoin="round" fill="none" stroke="#b0b0b0" stroke-opacity=".25" d="M75.03878 51.291875V344.88"/>
</g>
<path transform="matrix(1,0,0,-1,0,360)" d="M75.03878 51.291875V47.791875"/>
<path transform="matrix(1,0,0,-1,0,360)" stroke-width=".8" stroke-linecap="butt" stroke-linejoin="round" fill="none" stroke="#000000" d="M75.03878 51.291875V47.791875"/>
<text xml:space="preserve" transform="matrix(1 0 -0 1 71.21847 324.83314)" font-size="12" font-family="DejaVuSerif"><tspan y="0" x="0">0</tspan></text>
<g clip-path="url(#clip_2)">
<path transform="matrix(1,0,0,-1,0,360)" stroke-width=".75" stroke-linecap="square" stroke-linejoin="round" fill="none" stroke="#b0b0b0" stroke-opacity=".25" d="M140.1514 51.291875V344.88"/>
</g>
<path transform="matrix(1,0,0,-1,0,360)" d="M140.1514 51.291875V47.791875"/>
<path transform="matrix(1,0,0,-1,0,360)" stroke-width=".8" stroke-linecap="butt" stroke-linejoin="round" fill="none" stroke="#000000" d="M140.1514 51.291875V47.791875"/>
<text xml:space="preserve" transform="matrix(1 0 -0 1 132.51078 324.83314)" font-size="12" font-family="DejaVuSerif"><tspan y="0" x="0 7.6320006">20</tspan></text>
<g clip-path="url(#clip_3)">
<path transform="matrix(1,0,0,-1,0,360)" stroke-width=".75" stroke-linecap="square" stroke-linejoin="round" fill="none" stroke="#b0b0b0" stroke-opacity=".25" d="M205.264 51.291875V344.88"/>
</g>
<path transform="matrix(1,0,0,-1,0,360)" d="M205.264 51.291875V47.791875"/>
<path transform="matrix(1,0,0,-1,0,360)" stroke-width=".8" stroke-linecap="butt" stroke-linejoin="round" fill="none" stroke="#000000" d="M205.264 51.291875V47.791875"/>
<text xml:space="preserve" transform="matrix(1 0 -0 1 197.62339 324.83314)" font-size="12" font-family="DejaVuSerif"><tspan y="0" x="0 7.6320006">40</tspan></text>
<g clip-path="url(#clip_4)">
<path transform="matrix(1,0,0,-1,0,360)" stroke-width=".75" stroke-linecap="square" stroke-linejoin="round" fill="none" stroke="#b0b0b0" stroke-opacity=".25" d="M270.37663 51.291875V344.88"/>
</g>
<path transform="matrix(1,0,0,-1,0,360)" d="M270.37663 51.291875V47.791875"/>
<path transform="matrix(1,0,0,-1,0,360)" stroke-width=".8" stroke-linecap="butt" stroke-linejoin="round" fill="none" stroke="#000000" d="M270.37663 51.291875V47.791875"/>
<text xml:space="preserve" transform="matrix(1 0 -0 1 262.736 324.83314)" font-size="12" font-family="DejaVuSerif"><tspan y="0" x="0 7.6320006">60</tspan></text>
<g clip-path="url(#clip_5)">
<path transform="matrix(1,0,0,-1,0,360)" stroke-width=".75" stroke-linecap="square" stroke-linejoin="round" fill="none" stroke="#b0b0b0" stroke-opacity=".25" d="M335.48924 51.291875V344.88"/>
</g>
<path transform="matrix(1,0,0,-1,0,360)" d="M335.48924 51.291875V47.791875"/>
<path transform="matrix(1,0,0,-1,0,360)" stroke-width=".8" stroke-linecap="butt" stroke-linejoin="round" fill="none" stroke="#000000" d="M335.48924 51.291875V47.791875"/>
<text xml:space="preserve" transform="matrix(1 0 -0 1 327.8486 324.83314)" font-size="12" font-family="DejaVuSerif"><tspan y="0" x="0 7.6320006">80</tspan></text>
<g clip-path="url(#clip_6)">
<path transform="matrix(1,0,0,-1,0,360)" stroke-width=".75" stroke-linecap="square" stroke-linejoin="round" fill="none" stroke="#b0b0b0" stroke-opacity=".25" d="M400.60185 51.291875V344.88"/>
</g>
<path transform="matrix(1,0,0,-1,0,360)" d="M400.60185 51.291875V47.791875"/>
<path transform="matrix(1,0,0,-1,0,360)" stroke-width=".8" stroke-linecap="butt" stroke-linejoin="round" fill="none" stroke="#000000" d="M400.60185 51.291875V47.791875"/>
<text xml:space="preserve" transform="matrix(1 0 -0 1 389.1409 324.83314)" font-size="12" font-family="DejaVuSerif"><tspan y="0" x="0 7.6320006 15.264001">100</tspan></text>
<g clip-path="url(#clip_7)">
<path transform="matrix(1,0,0,-1,0,360)" stroke-width=".25" stroke-linecap="square" stroke-linejoin="round" fill="none" stroke="#b0b0b0" stroke-opacity=".15" d="M58.760625 51.291875V344.88"/>
</g>
<path transform="matrix(1,0,0,-1,0,360)" d="M58.760625 51.291875V49.291875"/>
<path transform="matrix(1,0,0,-1,0,360)" stroke-width=".6" stroke-linecap="butt" stroke-linejoin="round" fill="none" stroke="#000000" d="M58.760625 51.291875V49.291875"/>
<g clip-path="url(#clip_8)">
<path transform="matrix(1,0,0,-1,0,360)" stroke-width=".25" stroke-linecap="square" stroke-linejoin="round" fill="none" stroke="#b0b0b0" stroke-opacity=".15" d="M91.31693 51.291875V344.88"/>
</g>
<path transform="matrix(1,0,0,-1,0,360)" d="M91.31693 51.291875V49.291875"/>
<path transform="matrix(1,0,0,-1,0,360)" stroke-width=".6" stroke-linecap="butt" stroke-linejoin="round" fill="none" stroke="#000000" d="M91.31693 51.291875V49.291875"/>
<g clip-path="url(#clip_9)">
<path transform="matrix(1,0,0,-1,0,360)" stroke-width=".25" stroke-linecap="square" stroke-linejoin="round" fill="none" stroke="#b0b0b0" stroke-opacity=".15" d="M107.595088 51.291875V344.88"/>
</g>
<path transform="matrix(1,0,0,-1,0,360)" d="M107.595088 51.291875V49.291875"/>
<path transform="matrix(1,0,0,-1,0,360)" stroke-width=".6" stroke-linecap="butt" stroke-linejoin="round" fill="none" stroke="#000000" d="M107.595088 51.291875V49.291875"/>
<g clip-path="url(#clip_10)">
<path transform="matrix(1,0,0,-1,0,360)" stroke-width=".25" stroke-linecap="square" stroke-linejoin="round" fill="none" stroke="#b0b0b0" stroke-opacity=".15" d="M123.87324 51.291875V344.88"/>
</g>
<path transform="matrix(1,0,0,-1,0,360)" d="M123.87324 51.291875V49.291875"/>
<path transform="matrix(1,0,0,-1,0,360)" stroke-width=".6" stroke-linecap="butt" stroke-linejoin="round" fill="none" stroke="#000000" d="M123.87324 51.291875V49.291875"/>
<g clip-path="url(#clip_11)">
<path transform="matrix(1,0,0,-1,0,360)" stroke-width=".25" stroke-linecap="square" stroke-linejoin="round" fill="none" stroke="#b0b0b0" stroke-opacity=".15" d="M156.42955 51.291875V344.88"/>
</g>
<path transform="matrix(1,0,0,-1,0,360)" d="M156.42955 51.291875V49.291875"/>
<path transform="matrix(1,0,0,-1,0,360)" stroke-width=".6" stroke-linecap="butt" stroke-linejoin="round" fill="none" stroke="#000000" d="M156.42955 51.291875V49.291875"/>
<g clip-path="url(#clip_12)">
<path transform="matrix(1,0,0,-1,0,360)" stroke-width=".25" stroke-linecap="square" stroke-linejoin="round" fill="none" stroke="#b0b0b0" stroke-opacity=".15" d="M172.7077 51.291875V344.88"/>
</g>
<path transform="matrix(1,0,0,-1,0,360)" d="M172.7077 51.291875V49.291875"/>
<path transform="matrix(1,0,0,-1,0,360)" stroke-width=".6" stroke-linecap="butt" stroke-linejoin="round" fill="none" stroke="#000000" d="M172.7077 51.291875V49.291875"/>
<g clip-path="url(#clip_13)">
<path transform="matrix(1,0,0,-1,0,360)" stroke-width=".25" stroke-linecap="square" stroke-linejoin="round" fill="none" stroke="#b0b0b0" stroke-opacity=".15" d="M188.98586 51.291875V344.88"/>
</g>
<path transform="matrix(1,0,0,-1,0,360)" d="M188.98586 51.291875V49.291875"/>
<path transform="matrix(1,0,0,-1,0,360)" stroke-width=".6" stroke-linecap="butt" stroke-linejoin="round" fill="none" stroke="#000000" d="M188.98586 51.291875V49.291875"/>
<g clip-path="url(#clip_14)">
<path transform="matrix(1,0,0,-1,0,360)" stroke-width=".25" stroke-linecap="square" stroke-linejoin="round" fill="none" stroke="#b0b0b0" stroke-opacity=".15" d="M221.54216 51.291875V344.88"/>
</g>
<path transform="matrix(1,0,0,-1,0,360)" d="M221.54216 51.291875V49.291875"/>
<path transform="matrix(1,0,0,-1,0,360)" stroke-width=".6" stroke-linecap="butt" stroke-linejoin="round" fill="none" stroke="#000000" d="M221.54216 51.291875V49.291875"/>
<g clip-path="url(#clip_15)">
<path transform="matrix(1,0,0,-1,0,360)" stroke-width=".25" stroke-linecap="square" stroke-linejoin="round" fill="none" stroke="#b0b0b0" stroke-opacity=".15" d="M237.82032 51.291875V344.88"/>
</g>
<path transform="matrix(1,0,0,-1,0,360)" d="M237.82032 51.291875V49.291875"/>
<path transform="matrix(1,0,0,-1,0,360)" stroke-width=".6" stroke-linecap="butt" stroke-linejoin="round" fill="none" stroke="#000000" d="M237.82032 51.291875V49.291875"/>
<g clip-path="url(#clip_16)">
<path transform="matrix(1,0,0,-1,0,360)" stroke-width=".25" stroke-linecap="square" stroke-linejoin="round" fill="none" stroke="#b0b0b0" stroke-opacity=".15" d="M254.09847 51.291875V344.88"/>
</g>
<path transform="matrix(1,0,0,-1,0,360)" d="M254.09847 51.291875V49.291875"/>
<path transform="matrix(1,0,0,-1,0,360)" stroke-width=".6" stroke-linecap="butt" stroke-linejoin="round" fill="none" stroke="#000000" d="M254.09847 51.291875V49.291875"/>
<g clip-path="url(#clip_17)">
<path transform="matrix(1,0,0,-1,0,360)" stroke-width=".25" stroke-linecap="square" stroke-linejoin="round" fill="none" stroke="#b0b0b0" stroke-opacity=".15" d="M286.6548 51.291875V344.88"/>
</g>
<path transform="matrix(1,0,0,-1,0,360)" d="M286.6548 51.291875V49.291875"/>
<path transform="matrix(1,0,0,-1,0,360)" stroke-width=".6" stroke-linecap="butt" stroke-linejoin="round" fill="none" stroke="#000000" d="M286.6548 51.291875V49.291875"/>
<g clip-path="url(#clip_18)">
<path transform="matrix(1,0,0,-1,0,360)" stroke-width=".25" stroke-linecap="square" stroke-linejoin="round" fill="none" stroke="#b0b0b0" stroke-opacity=".15" d="M302.93293 51.291875V344.88"/>
</g>
<path transform="matrix(1,0,0,-1,0,360)" d="M302.93293 51.291875V49.291875"/>
<path transform="matrix(1,0,0,-1,0,360)" stroke-width=".6" stroke-linecap="butt" stroke-linejoin="round" fill="none" stroke="#000000" d="M302.93293 51.291875V49.291875"/>
<g clip-path="url(#clip_19)">
<path transform="matrix(1,0,0,-1,0,360)" stroke-width=".25" stroke-linecap="square" stroke-linejoin="round" fill="none" stroke="#b0b0b0" stroke-opacity=".15" d="M319.2111 51.291875V344.88"/>
</g>
<path transform="matrix(1,0,0,-1,0,360)" d="M319.2111 51.291875V49.291875"/>
<path transform="matrix(1,0,0,-1,0,360)" stroke-width=".6" stroke-linecap="butt" stroke-linejoin="round" fill="none" stroke="#000000" d="M319.2111 51.291875V49.291875"/>
<g clip-path="url(#clip_20)">
<path transform="matrix(1,0,0,-1,0,360)" stroke-width=".25" stroke-linecap="square" stroke-linejoin="round" fill="none" stroke="#b0b0b0" stroke-opacity=".15" d="M351.7674 51.291875V344.88"/>
</g>
<path transform="matrix(1,0,0,-1,0,360)" d="M351.7674 51.291875V49.291875"/>
<path transform="matrix(1,0,0,-1,0,360)" stroke-width=".6" stroke-linecap="butt" stroke-linejoin="round" fill="none" stroke="#000000" d="M351.7674 51.291875V49.291875"/>
<g clip-path="url(#clip_21)">
<path transform="matrix(1,0,0,-1,0,360)" stroke-width=".25" stroke-linecap="square" stroke-linejoin="round" fill="none" stroke="#b0b0b0" stroke-opacity=".15" d="M368.04554 51.291875V344.88"/>
</g>
<path transform="matrix(1,0,0,-1,0,360)" d="M368.04554 51.291875V49.291875"/>
<path transform="matrix(1,0,0,-1,0,360)" stroke-width=".6" stroke-linecap="butt" stroke-linejoin="round" fill="none" stroke="#000000" d="M368.04554 51.291875V49.291875"/>
<g clip-path="url(#clip_22)">
<path transform="matrix(1,0,0,-1,0,360)" stroke-width=".25" stroke-linecap="square" stroke-linejoin="round" fill="none" stroke="#b0b0b0" stroke-opacity=".15" d="M384.3237 51.291875V344.88"/>
</g>
<path transform="matrix(1,0,0,-1,0,360)" d="M384.3237 51.291875V49.291875"/>
<path transform="matrix(1,0,0,-1,0,360)" stroke-width=".6" stroke-linecap="butt" stroke-linejoin="round" fill="none" stroke="#000000" d="M384.3237 51.291875V49.291875"/>
<g clip-path="url(#clip_23)">
<path transform="matrix(1,0,0,-1,0,360)" stroke-width=".25" stroke-linecap="square" stroke-linejoin="round" fill="none" stroke="#b0b0b0" stroke-opacity=".15" d="M416.88 51.291875V344.88"/>
</g>
<path transform="matrix(1,0,0,-1,0,360)" d="M416.88 51.291875V49.291875"/>
<path transform="matrix(1,0,0,-1,0,360)" stroke-width=".6" stroke-linecap="butt" stroke-linejoin="round" fill="none" stroke="#000000" d="M416.88 51.291875V49.291875"/>
<text xml:space="preserve" transform="matrix(1 0 -0 1 160.04688 341.97377)" font-size="14" font-family="DejaVuSerif"><tspan y="0" x="0 11.4800009 20.440003 25.620003 34.636 41.818 50.302003 58.646005 64.274 68.754009 77.18201 86.198009 93.380008 97.86001 106.14801 114.058017 122.346019 126.82602 131.27802 136.73802 150.03803">Obfuskationslevel (%)</tspan></text>
<g clip-path="url(#clip_24)">
<path transform="matrix(1,0,0,-1,0,360)" stroke-width=".75" stroke-linecap="square" stroke-linejoin="round" fill="none" stroke="#b0b0b0" stroke-opacity=".25" d="M58.760625 63.88804H416.88"/>
</g>
<path transform="matrix(1,0,0,-1,0,360)" d="M58.760625 63.88804H55.260625"/>
<path transform="matrix(1,0,0,-1,0,360)" stroke-width=".8" stroke-linecap="butt" stroke-linejoin="round" fill="none" stroke="#000000" d="M58.760625 63.88804H55.260625"/>
<text xml:space="preserve" transform="matrix(1 0 -0 1 32.666875 300.67448)" font-size="12" font-family="DejaVuSerif"><tspan y="0" x="0 7.6320006 11.448001">2.0</tspan></text>
<g clip-path="url(#clip_25)">
<path transform="matrix(1,0,0,-1,0,360)" stroke-width=".75" stroke-linecap="square" stroke-linejoin="round" fill="none" stroke="#b0b0b0" stroke-opacity=".25" d="M58.760625 118.46977H416.88"/>
</g>
<path transform="matrix(1,0,0,-1,0,360)" d="M58.760625 118.46977H55.260625"/>
<path transform="matrix(1,0,0,-1,0,360)" stroke-width=".8" stroke-linecap="butt" stroke-linejoin="round" fill="none" stroke="#000000" d="M58.760625 118.46977H55.260625"/>
<text xml:space="preserve" transform="matrix(1 0 -0 1 32.666875 246.09273)" font-size="12" font-family="DejaVuSerif"><tspan y="0" x="0 7.6320006 11.448001">2.5</tspan></text>
<g clip-path="url(#clip_26)">
<path transform="matrix(1,0,0,-1,0,360)" stroke-width=".75" stroke-linecap="square" stroke-linejoin="round" fill="none" stroke="#b0b0b0" stroke-opacity=".25" d="M58.760625 173.05152H416.88"/>
</g>
<path transform="matrix(1,0,0,-1,0,360)" d="M58.760625 173.05152H55.260625"/>
<path transform="matrix(1,0,0,-1,0,360)" stroke-width=".8" stroke-linecap="butt" stroke-linejoin="round" fill="none" stroke="#000000" d="M58.760625 173.05152H55.260625"/>
<text xml:space="preserve" transform="matrix(1 0 -0 1 32.666875 191.511)" font-size="12" font-family="DejaVuSerif"><tspan y="0" x="0 7.6320006 11.448001">3.0</tspan></text>
<g clip-path="url(#clip_27)">
<path transform="matrix(1,0,0,-1,0,360)" stroke-width=".75" stroke-linecap="square" stroke-linejoin="round" fill="none" stroke="#b0b0b0" stroke-opacity=".25" d="M58.760625 227.63324H416.88"/>
</g>
<path transform="matrix(1,0,0,-1,0,360)" d="M58.760625 227.63324H55.260625"/>
<path transform="matrix(1,0,0,-1,0,360)" stroke-width=".8" stroke-linecap="butt" stroke-linejoin="round" fill="none" stroke="#000000" d="M58.760625 227.63324H55.260625"/>
<text xml:space="preserve" transform="matrix(1 0 -0 1 32.666875 136.92926)" font-size="12" font-family="DejaVuSerif"><tspan y="0" x="0 7.6320006 11.448001">3.5</tspan></text>
<g clip-path="url(#clip_28)">
<path transform="matrix(1,0,0,-1,0,360)" stroke-width=".75" stroke-linecap="square" stroke-linejoin="round" fill="none" stroke="#b0b0b0" stroke-opacity=".25" d="M58.760625 282.21498H416.88"/>
</g>
<path transform="matrix(1,0,0,-1,0,360)" d="M58.760625 282.21498H55.260625"/>
<path transform="matrix(1,0,0,-1,0,360)" stroke-width=".8" stroke-linecap="butt" stroke-linejoin="round" fill="none" stroke="#000000" d="M58.760625 282.21498H55.260625"/>
<text xml:space="preserve" transform="matrix(1 0 -0 1 32.666875 82.347537)" font-size="12" font-family="DejaVuSerif"><tspan y="0" x="0 7.6320006 11.448001">4.0</tspan></text>
<g clip-path="url(#clip_29)">
<path transform="matrix(1,0,0,-1,0,360)" stroke-width=".75" stroke-linecap="square" stroke-linejoin="round" fill="none" stroke="#b0b0b0" stroke-opacity=".25" d="M58.760625 336.79673H416.88"/>
</g>
<path transform="matrix(1,0,0,-1,0,360)" d="M58.760625 336.79673H55.260625"/>
<path transform="matrix(1,0,0,-1,0,360)" stroke-width=".8" stroke-linecap="butt" stroke-linejoin="round" fill="none" stroke="#000000" d="M58.760625 336.79673H55.260625"/>
<text xml:space="preserve" transform="matrix(1 0 -0 1 32.666875 27.765778)" font-size="12" font-family="DejaVuSerif"><tspan y="0" x="0 7.6320006 11.448001">4.5</tspan></text>
<g clip-path="url(#clip_30)">
<path transform="matrix(1,0,0,-1,0,360)" stroke-width=".25" stroke-linecap="square" stroke-linejoin="round" fill="none" stroke="#b0b0b0" stroke-opacity=".15" d="M58.760625 52.97169H416.88"/>
</g>
<path transform="matrix(1,0,0,-1,0,360)" d="M58.760625 52.97169H56.760625"/>
<path transform="matrix(1,0,0,-1,0,360)" stroke-width=".6" stroke-linecap="butt" stroke-linejoin="round" fill="none" stroke="#000000" d="M58.760625 52.97169H56.760625"/>
<g clip-path="url(#clip_31)">
<path transform="matrix(1,0,0,-1,0,360)" stroke-width=".25" stroke-linecap="square" stroke-linejoin="round" fill="none" stroke="#b0b0b0" stroke-opacity=".15" d="M58.760625 74.80438H416.88"/>
</g>
<path transform="matrix(1,0,0,-1,0,360)" d="M58.760625 74.80438H56.760625"/>
<path transform="matrix(1,0,0,-1,0,360)" stroke-width=".6" stroke-linecap="butt" stroke-linejoin="round" fill="none" stroke="#000000" d="M58.760625 74.80438H56.760625"/>
<g clip-path="url(#clip_32)">
<path transform="matrix(1,0,0,-1,0,360)" stroke-width=".25" stroke-linecap="square" stroke-linejoin="round" fill="none" stroke="#b0b0b0" stroke-opacity=".15" d="M58.760625 85.72073H416.88"/>
</g>
<path transform="matrix(1,0,0,-1,0,360)" d="M58.760625 85.72073H56.760625"/>
<path transform="matrix(1,0,0,-1,0,360)" stroke-width=".6" stroke-linecap="butt" stroke-linejoin="round" fill="none" stroke="#000000" d="M58.760625 85.72073H56.760625"/>
<g clip-path="url(#clip_33)">
<path transform="matrix(1,0,0,-1,0,360)" stroke-width=".25" stroke-linecap="square" stroke-linejoin="round" fill="none" stroke="#b0b0b0" stroke-opacity=".15" d="M58.760625 96.63708H416.88"/>
</g>
<path transform="matrix(1,0,0,-1,0,360)" d="M58.760625 96.63708H56.760625"/>
<path transform="matrix(1,0,0,-1,0,360)" stroke-width=".6" stroke-linecap="butt" stroke-linejoin="round" fill="none" stroke="#000000" d="M58.760625 96.63708H56.760625"/>
<g clip-path="url(#clip_34)">
<path transform="matrix(1,0,0,-1,0,360)" stroke-width=".25" stroke-linecap="square" stroke-linejoin="round" fill="none" stroke="#b0b0b0" stroke-opacity=".15" d="M58.760625 107.55343H416.88"/>
</g>
<path transform="matrix(1,0,0,-1,0,360)" d="M58.760625 107.55343H56.760625"/>
<path transform="matrix(1,0,0,-1,0,360)" stroke-width=".6" stroke-linecap="butt" stroke-linejoin="round" fill="none" stroke="#000000" d="M58.760625 107.55343H56.760625"/>
<g clip-path="url(#clip_35)">
<path transform="matrix(1,0,0,-1,0,360)" stroke-width=".25" stroke-linecap="square" stroke-linejoin="round" fill="none" stroke="#b0b0b0" stroke-opacity=".15" d="M58.760625 129.38613H416.88"/>
</g>
<path transform="matrix(1,0,0,-1,0,360)" d="M58.760625 129.38613H56.760625"/>
<path transform="matrix(1,0,0,-1,0,360)" stroke-width=".6" stroke-linecap="butt" stroke-linejoin="round" fill="none" stroke="#000000" d="M58.760625 129.38613H56.760625"/>
<g clip-path="url(#clip_36)">
<path transform="matrix(1,0,0,-1,0,360)" stroke-width=".25" stroke-linecap="square" stroke-linejoin="round" fill="none" stroke="#b0b0b0" stroke-opacity=".15" d="M58.760625 140.30246H416.88"/>
</g>
<path transform="matrix(1,0,0,-1,0,360)" d="M58.760625 140.30246H56.760625"/>
<path transform="matrix(1,0,0,-1,0,360)" stroke-width=".6" stroke-linecap="butt" stroke-linejoin="round" fill="none" stroke="#000000" d="M58.760625 140.30246H56.760625"/>
<g clip-path="url(#clip_37)">
<path transform="matrix(1,0,0,-1,0,360)" stroke-width=".25" stroke-linecap="square" stroke-linejoin="round" fill="none" stroke="#b0b0b0" stroke-opacity=".15" d="M58.760625 151.21881H416.88"/>
</g>
<path transform="matrix(1,0,0,-1,0,360)" d="M58.760625 151.21881H56.760625"/>
<path transform="matrix(1,0,0,-1,0,360)" stroke-width=".6" stroke-linecap="butt" stroke-linejoin="round" fill="none" stroke="#000000" d="M58.760625 151.21881H56.760625"/>
<g clip-path="url(#clip_38)">
<path transform="matrix(1,0,0,-1,0,360)" stroke-width=".25" stroke-linecap="square" stroke-linejoin="round" fill="none" stroke="#b0b0b0" stroke-opacity=".15" d="M58.760625 162.13516H416.88"/>
</g>
<path transform="matrix(1,0,0,-1,0,360)" d="M58.760625 162.13516H56.760625"/>
<path transform="matrix(1,0,0,-1,0,360)" stroke-width=".6" stroke-linecap="butt" stroke-linejoin="round" fill="none" stroke="#000000" d="M58.760625 162.13516H56.760625"/>
<g clip-path="url(#clip_39)">
<path transform="matrix(1,0,0,-1,0,360)" stroke-width=".25" stroke-linecap="square" stroke-linejoin="round" fill="none" stroke="#b0b0b0" stroke-opacity=".15" d="M58.760625 183.96785H416.88"/>
</g>
<path transform="matrix(1,0,0,-1,0,360)" d="M58.760625 183.96785H56.760625"/>
<path transform="matrix(1,0,0,-1,0,360)" stroke-width=".6" stroke-linecap="butt" stroke-linejoin="round" fill="none" stroke="#000000" d="M58.760625 183.96785H56.760625"/>
<g clip-path="url(#clip_40)">
<path transform="matrix(1,0,0,-1,0,360)" stroke-width=".25" stroke-linecap="square" stroke-linejoin="round" fill="none" stroke="#b0b0b0" stroke-opacity=".15" d="M58.760625 194.8842H416.88"/>
</g>
<path transform="matrix(1,0,0,-1,0,360)" d="M58.760625 194.8842H56.760625"/>
<path transform="matrix(1,0,0,-1,0,360)" stroke-width=".6" stroke-linecap="butt" stroke-linejoin="round" fill="none" stroke="#000000" d="M58.760625 194.8842H56.760625"/>
<g clip-path="url(#clip_41)">
<path transform="matrix(1,0,0,-1,0,360)" stroke-width=".25" stroke-linecap="square" stroke-linejoin="round" fill="none" stroke="#b0b0b0" stroke-opacity=".15" d="M58.760625 205.80055H416.88"/>
</g>
<path transform="matrix(1,0,0,-1,0,360)" d="M58.760625 205.80055H56.760625"/>
<path transform="matrix(1,0,0,-1,0,360)" stroke-width=".6" stroke-linecap="butt" stroke-linejoin="round" fill="none" stroke="#000000" d="M58.760625 205.80055H56.760625"/>
<g clip-path="url(#clip_42)">
<path transform="matrix(1,0,0,-1,0,360)" stroke-width=".25" stroke-linecap="square" stroke-linejoin="round" fill="none" stroke="#b0b0b0" stroke-opacity=".15" d="M58.760625 216.71689H416.88"/>
</g>
<path transform="matrix(1,0,0,-1,0,360)" d="M58.760625 216.71689H56.760625"/>
<path transform="matrix(1,0,0,-1,0,360)" stroke-width=".6" stroke-linecap="butt" stroke-linejoin="round" fill="none" stroke="#000000" d="M58.760625 216.71689H56.760625"/>
<g clip-path="url(#clip_43)">
<path transform="matrix(1,0,0,-1,0,360)" stroke-width=".25" stroke-linecap="square" stroke-linejoin="round" fill="none" stroke="#b0b0b0" stroke-opacity=".15" d="M58.760625 238.54959H416.88"/>
</g>
<path transform="matrix(1,0,0,-1,0,360)" d="M58.760625 238.54959H56.760625"/>
<path transform="matrix(1,0,0,-1,0,360)" stroke-width=".6" stroke-linecap="butt" stroke-linejoin="round" fill="none" stroke="#000000" d="M58.760625 238.54959H56.760625"/>
<g clip-path="url(#clip_44)">
<path transform="matrix(1,0,0,-1,0,360)" stroke-width=".25" stroke-linecap="square" stroke-linejoin="round" fill="none" stroke="#b0b0b0" stroke-opacity=".15" d="M58.760625 249.46595H416.88"/>
</g>
<path transform="matrix(1,0,0,-1,0,360)" d="M58.760625 249.46595H56.760625"/>
<path transform="matrix(1,0,0,-1,0,360)" stroke-width=".6" stroke-linecap="butt" stroke-linejoin="round" fill="none" stroke="#000000" d="M58.760625 249.46595H56.760625"/>
<g clip-path="url(#clip_45)">
<path transform="matrix(1,0,0,-1,0,360)" stroke-width=".25" stroke-linecap="square" stroke-linejoin="round" fill="none" stroke="#b0b0b0" stroke-opacity=".15" d="M58.760625 260.3823H416.88"/>
</g>
<path transform="matrix(1,0,0,-1,0,360)" d="M58.760625 260.3823H56.760625"/>
<path transform="matrix(1,0,0,-1,0,360)" stroke-width=".6" stroke-linecap="butt" stroke-linejoin="round" fill="none" stroke="#000000" d="M58.760625 260.3823H56.760625"/>
<g clip-path="url(#clip_46)">
<path transform="matrix(1,0,0,-1,0,360)" stroke-width=".25" stroke-linecap="square" stroke-linejoin="round" fill="none" stroke="#b0b0b0" stroke-opacity=".15" d="M58.760625 271.29866H416.88"/>
</g>
<path transform="matrix(1,0,0,-1,0,360)" d="M58.760625 271.29866H56.760625"/>
<path transform="matrix(1,0,0,-1,0,360)" stroke-width=".6" stroke-linecap="butt" stroke-linejoin="round" fill="none" stroke="#000000" d="M58.760625 271.29866H56.760625"/>
<g clip-path="url(#clip_47)">
<path transform="matrix(1,0,0,-1,0,360)" stroke-width=".25" stroke-linecap="square" stroke-linejoin="round" fill="none" stroke="#b0b0b0" stroke-opacity=".15" d="M58.760625 293.13133H416.88"/>
</g>
<path transform="matrix(1,0,0,-1,0,360)" d="M58.760625 293.13133H56.760625"/>
<path transform="matrix(1,0,0,-1,0,360)" stroke-width=".6" stroke-linecap="butt" stroke-linejoin="round" fill="none" stroke="#000000" d="M58.760625 293.13133H56.760625"/>
<g clip-path="url(#clip_48)">
<path transform="matrix(1,0,0,-1,0,360)" stroke-width=".25" stroke-linecap="square" stroke-linejoin="round" fill="none" stroke="#b0b0b0" stroke-opacity=".15" d="M58.760625 304.04768H416.88"/>
</g>
<path transform="matrix(1,0,0,-1,0,360)" d="M58.760625 304.04768H56.760625"/>
<path transform="matrix(1,0,0,-1,0,360)" stroke-width=".6" stroke-linecap="butt" stroke-linejoin="round" fill="none" stroke="#000000" d="M58.760625 304.04768H56.760625"/>
<g clip-path="url(#clip_49)">
<path transform="matrix(1,0,0,-1,0,360)" stroke-width=".25" stroke-linecap="square" stroke-linejoin="round" fill="none" stroke="#b0b0b0" stroke-opacity=".15" d="M58.760625 314.96403H416.88"/>
</g>
<path transform="matrix(1,0,0,-1,0,360)" d="M58.760625 314.96403H56.760625"/>
<path transform="matrix(1,0,0,-1,0,360)" stroke-width=".6" stroke-linecap="butt" stroke-linejoin="round" fill="none" stroke="#000000" d="M58.760625 314.96403H56.760625"/>
<g clip-path="url(#clip_50)">
<path transform="matrix(1,0,0,-1,0,360)" stroke-width=".25" stroke-linecap="square" stroke-linejoin="round" fill="none" stroke="#b0b0b0" stroke-opacity=".15" d="M58.760625 325.88038H416.88"/>
</g>
<path transform="matrix(1,0,0,-1,0,360)" d="M58.760625 325.88038H56.760625"/>
<path transform="matrix(1,0,0,-1,0,360)" stroke-width=".6" stroke-linecap="butt" stroke-linejoin="round" fill="none" stroke="#000000" d="M58.760625 325.88038H56.760625"/>
<text xml:space="preserve" transform="matrix(0 -1 1 0 25.760626 309.8828)" font-size="14" font-family="DejaVuSerif"><tspan y="0" x="0 11.228001 20.244002 26.936 34.776 43.792 50.974 58.814 67.83 76.846 81.326007 86.954 92.582 97.062007 101.54201 109.382 118.398 126.686008 131.138 141.22101 149.649 162.921 171.88101 176.36101 180.841 189.185 194.813 199.293 207.721 216.737 223.919 231.29701 239.585 244.065 249.69301 254.145 259.605 269.195 277.483 285.967 290.419">Durchschnittliche Kompilationszeit (Sek.)</tspan></text>
<g clip-path="url(#clip_51)">
<path transform="matrix(1,0,0,-1,0,360)" stroke-width="2" stroke-linecap="square" stroke-linejoin="round" fill="none" stroke="#4e4e4e" d="M75.03878 122.58616 140.1514 182.2621 205.264 198.34894 270.37663 214.33255 335.48924 230.43155 400.60185 246.34694"/>
<g clip-path="url(#clip_52)">
<path transform="matrix(1,0,0,-1,75.03878,237.41385)" d="M0-4C1.060812-4 2.078319-3.578535 2.828427-2.828427 3.578535-2.078319 4-1.060812 4 0 4 1.060812 3.578535 2.078319 2.828427 2.828427 2.078319 3.578535 1.060812 4 0 4-1.060812 4-2.078319 3.578535-2.828427 2.828427-3.578535 2.078319-4 1.060812-4 0-4-1.060812-3.578535-2.078319-2.828427-2.828427-2.078319-3.578535-1.060812-4 0-4Z" fill="#7e7e7e"/>
<path transform="matrix(1,0,0,-1,75.03878,237.41385)" stroke-width="1" stroke-linecap="butt" stroke-linejoin="round" fill="none" stroke="#ffffff" d="M0-4C1.060812-4 2.078319-3.578535 2.828427-2.828427 3.578535-2.078319 4-1.060812 4 0 4 1.060812 3.578535 2.078319 2.828427 2.828427 2.078319 3.578535 1.060812 4 0 4-1.060812 4-2.078319 3.578535-2.828427 2.828427-3.578535 2.078319-4 1.060812-4 0-4-1.060812-3.578535-2.078319-2.828427-2.828427-2.078319-3.578535-1.060812-4 0-4Z"/>
</g>
<g clip-path="url(#clip_53)">
<path transform="matrix(1,0,0,-1,140.1514,177.73792)" d="M0-4C1.060812-4 2.078319-3.578535 2.828427-2.828427 3.578535-2.078319 4-1.060812 4 0 4 1.060812 3.578535 2.078319 2.828427 2.828427 2.078319 3.578535 1.060812 4 0 4-1.060812 4-2.078319 3.578535-2.828427 2.828427-3.578535 2.078319-4 1.060812-4 0-4-1.060812-3.578535-2.078319-2.828427-2.828427-2.078319-3.578535-1.060812-4 0-4Z" fill="#7e7e7e"/>
<path transform="matrix(1,0,0,-1,140.1514,177.73792)" stroke-width="1" stroke-linecap="butt" stroke-linejoin="round" fill="none" stroke="#ffffff" d="M0-4C1.060812-4 2.078319-3.578535 2.828427-2.828427 3.578535-2.078319 4-1.060812 4 0 4 1.060812 3.578535 2.078319 2.828427 2.828427 2.078319 3.578535 1.060812 4 0 4-1.060812 4-2.078319 3.578535-2.828427 2.828427-3.578535 2.078319-4 1.060812-4 0-4-1.060812-3.578535-2.078319-2.828427-2.828427-2.078319-3.578535-1.060812-4 0-4Z"/>
</g>
<g clip-path="url(#clip_54)">
<path transform="matrix(1,0,0,-1,205.264,161.65108)" d="M0-4C1.060812-4 2.078319-3.578535 2.828427-2.828427 3.578535-2.078319 4-1.060812 4 0 4 1.060812 3.578535 2.078319 2.828427 2.828427 2.078319 3.578535 1.060812 4 0 4-1.060812 4-2.078319 3.578535-2.828427 2.828427-3.578535 2.078319-4 1.060812-4 0-4-1.060812-3.578535-2.078319-2.828427-2.828427-2.078319-3.578535-1.060812-4 0-4Z" fill="#7e7e7e"/>
<path transform="matrix(1,0,0,-1,205.264,161.65108)" stroke-width="1" stroke-linecap="butt" stroke-linejoin="round" fill="none" stroke="#ffffff" d="M0-4C1.060812-4 2.078319-3.578535 2.828427-2.828427 3.578535-2.078319 4-1.060812 4 0 4 1.060812 3.578535 2.078319 2.828427 2.828427 2.078319 3.578535 1.060812 4 0 4-1.060812 4-2.078319 3.578535-2.828427 2.828427-3.578535 2.078319-4 1.060812-4 0-4-1.060812-3.578535-2.078319-2.828427-2.828427-2.078319-3.578535-1.060812-4 0-4Z"/>
</g>
<g clip-path="url(#clip_55)">
<path transform="matrix(1,0,0,-1,270.37663,145.66745)" d="M0-4C1.060812-4 2.078319-3.578535 2.828427-2.828427 3.578535-2.078319 4-1.060812 4 0 4 1.060812 3.578535 2.078319 2.828427 2.828427 2.078319 3.578535 1.060812 4 0 4-1.060812 4-2.078319 3.578535-2.828427 2.828427-3.578535 2.078319-4 1.060812-4 0-4-1.060812-3.578535-2.078319-2.828427-2.828427-2.078319-3.578535-1.060812-4 0-4Z" fill="#7e7e7e"/>
<path transform="matrix(1,0,0,-1,270.37663,145.66745)" stroke-width="1" stroke-linecap="butt" stroke-linejoin="round" fill="none" stroke="#ffffff" d="M0-4C1.060812-4 2.078319-3.578535 2.828427-2.828427 3.578535-2.078319 4-1.060812 4 0 4 1.060812 3.578535 2.078319 2.828427 2.828427 2.078319 3.578535 1.060812 4 0 4-1.060812 4-2.078319 3.578535-2.828427 2.828427-3.578535 2.078319-4 1.060812-4 0-4-1.060812-3.578535-2.078319-2.828427-2.828427-2.078319-3.578535-1.060812-4 0-4Z"/>
</g>
<g clip-path="url(#clip_56)">
<path transform="matrix(1,0,0,-1,335.48924,129.56845)" d="M0-4C1.060812-4 2.078319-3.578535 2.828427-2.828427 3.578535-2.078319 4-1.060812 4 0 4 1.060812 3.578535 2.078319 2.828427 2.828427 2.078319 3.578535 1.060812 4 0 4-1.060812 4-2.078319 3.578535-2.828427 2.828427-3.578535 2.078319-4 1.060812-4 0-4-1.060812-3.578535-2.078319-2.828427-2.828427-2.078319-3.578535-1.060812-4 0-4Z" fill="#7e7e7e"/>
<path transform="matrix(1,0,0,-1,335.48924,129.56845)" stroke-width="1" stroke-linecap="butt" stroke-linejoin="round" fill="none" stroke="#ffffff" d="M0-4C1.060812-4 2.078319-3.578535 2.828427-2.828427 3.578535-2.078319 4-1.060812 4 0 4 1.060812 3.578535 2.078319 2.828427 2.828427 2.078319 3.578535 1.060812 4 0 4-1.060812 4-2.078319 3.578535-2.828427 2.828427-3.578535 2.078319-4 1.060812-4 0-4-1.060812-3.578535-2.078319-2.828427-2.828427-2.078319-3.578535-1.060812-4 0-4Z"/>
</g>
<g clip-path="url(#clip_57)">
<path transform="matrix(1,0,0,-1,400.60185,113.65307)" d="M0-4C1.060812-4 2.078319-3.578535 2.828427-2.828427 3.578535-2.078319 4-1.060812 4 0 4 1.060812 3.578535 2.078319 2.828427 2.828427 2.078319 3.578535 1.060812 4 0 4-1.060812 4-2.078319 3.578535-2.828427 2.828427-3.578535 2.078319-4 1.060812-4 0-4-1.060812-3.578535-2.078319-2.828427-2.828427-2.078319-3.578535-1.060812-4 0-4Z" fill="#7e7e7e"/>
<path transform="matrix(1,0,0,-1,400.60185,113.65307)" stroke-width="1" stroke-linecap="butt" stroke-linejoin="round" fill="none" stroke="#ffffff" d="M0-4C1.060812-4 2.078319-3.578535 2.828427-2.828427 3.578535-2.078319 4-1.060812 4 0 4 1.060812 3.578535 2.078319 2.828427 2.828427 2.078319 3.578535 1.060812 4 0 4-1.060812 4-2.078319 3.578535-2.828427 2.828427-3.578535 2.078319-4 1.060812-4 0-4-1.060812-3.578535-2.078319-2.828427-2.828427-2.078319-3.578535-1.060812-4 0-4Z"/>
</g>
</g>
<g clip-path="url(#clip_58)">
<path transform="matrix(1,0,0,-1,0,360)" stroke-width="1.5" stroke-linecap="butt" stroke-dasharray="5.55,2.4" stroke-linejoin="round" fill="none" stroke="#4e4e4e" stroke-opacity=".8" d="M58.760625 122.58616H416.88"/>
</g>
<path transform="matrix(1,0,0,-1,0,360)" stroke-width=".8" stroke-linecap="square" stroke-miterlimit="10" stroke-linejoin="miter" fill="none" stroke="#000000" d="M58.760625 51.291875V344.88"/>
<path transform="matrix(1,0,0,-1,0,360)" stroke-width=".8" stroke-linecap="square" stroke-miterlimit="10" stroke-linejoin="miter" fill="none" stroke="#000000" d="M416.88 51.291875V344.88"/>
<path transform="matrix(1,0,0,-1,0,360)" stroke-width=".8" stroke-linecap="square" stroke-miterlimit="10" stroke-linejoin="miter" fill="none" stroke="#000000" d="M58.760625 51.291875H416.88"/>
<path transform="matrix(1,0,0,-1,0,360)" stroke-width=".8" stroke-linecap="square" stroke-miterlimit="10" stroke-linejoin="miter" fill="none" stroke="#000000" d="M58.760625 344.88H416.88"/>
</svg>
