<svg xmlns="http://www.w3.org/2000/svg" xmlns:xlink="http://www.w3.org/1999/xlink" xmlns:inkscape="http://www.inkscape.org/namespaces/inkscape" version="1.1" width="432" height="360" viewBox="0 0 432 360">
<defs>
<clipPath id="clip_1">
<path transform="matrix(1,0,0,-1,0,360)" d="M62.791875 51.291875H416.88V344.88H62.791875Z"/>
</clipPath>
<clipPath id="clip_2">
<path transform="matrix(1,0,0,-1,0,360)" d="M62.791875 51.291875H416.88V344.88H62.791875Z"/>
</clipPath>
<clipPath id="clip_3">
<path transform="matrix(1,0,0,-1,0,360)" d="M62.791875 51.291875H416.88V344.88H62.791875Z"/>
</clipPath>
<clipPath id="clip_4">
<path transform="matrix(1,0,0,-1,0,360)" d="M62.791875 51.291875H416.88V344.88H62.791875Z"/>
</clipPath>
<clipPath id="clip_5">
<path transform="matrix(1,0,0,-1,0,360)" d="M62.791875 51.291875H416.88V344.88H62.791875Z"/>
</clipPath>
<clipPath id="clip_6">
<path transform="matrix(1,0,0,-1,0,360)" d="M62.791875 51.291875H416.88V344.88H62.791875Z"/>
</clipPath>
<clipPath id="clip_7">
<path transform="matrix(1,0,0,-1,0,360)" d="M62.791875 51.291875H416.88V344.88H62.791875Z"/>
</clipPath>
<clipPath id="clip_8">
<path transform="matrix(1,0,0,-1,0,360)" d="M62.791875 51.291875H416.88V344.88H62.791875Z"/>
</clipPath>
<clipPath id="clip_9">
<path transform="matrix(1,0,0,-1,0,360)" d="M62.791875 51.291875H416.88V344.88H62.791875Z"/>
</clipPath>
<clipPath id="clip_10">
<path transform="matrix(1,0,0,-1,0,360)" d="M62.791875 51.291875H416.88V344.88H62.791875Z"/>
</clipPath>
<clipPath id="clip_11">
<path transform="matrix(1,0,0,-1,0,360)" d="M62.791875 51.291875H416.88V344.88H62.791875Z"/>
</clipPath>
<clipPath id="clip_12">
<path transform="matrix(1,0,0,-1,0,360)" d="M62.791875 51.291875H416.88V344.88H62.791875Z"/>
</clipPath>
<clipPath id="clip_13">
<path transform="matrix(1,0,0,-1,0,360)" d="M62.791875 51.291875H416.88V344.88H62.791875Z"/>
</clipPath>
<clipPath id="clip_14">
<path transform="matrix(1,0,0,-1,0,360)" d="M62.791875 51.291875H416.88V344.88H62.791875Z"/>
</clipPath>
<clipPath id="clip_15">
<path transform="matrix(1,0,0,-1,0,360)" d="M62.791875 51.291875H416.88V344.88H62.791875Z"/>
</clipPath>
<clipPath id="clip_16">
<path transform="matrix(1,0,0,-1,0,360)" d="M62.791875 51.291875H416.88V344.88H62.791875Z"/>
</clipPath>
<clipPath id="clip_17">
<path transform="matrix(1,0,0,-1,0,360)" d="M62.791875 51.291875H416.88V344.88H62.791875Z"/>
</clipPath>
<clipPath id="clip_18">
<path transform="matrix(1,0,0,-1,0,360)" d="M62.791875 51.291875H416.88V344.88H62.791875Z"/>
</clipPath>
<clipPath id="clip_19">
<path transform="matrix(1,0,0,-1,0,360)" d="M62.791875 51.291875H416.88V344.88H62.791875Z"/>
</clipPath>
<clipPath id="clip_20">
<path transform="matrix(1,0,0,-1,0,360)" d="M62.791875 51.291875H416.88V344.88H62.791875Z"/>
</clipPath>
<clipPath id="clip_21">
<path transform="matrix(1,0,0,-1,0,360)" d="M62.791875 51.291875H416.88V344.88H62.791875Z"/>
</clipPath>
<clipPath id="clip_22">
<path transform="matrix(1,0,0,-1,0,360)" d="M62.791875 51.291875H416.88V344.88H62.791875Z"/>
</clipPath>
<clipPath id="clip_23">
<path transform="matrix(1,0,0,-1,0,360)" d="M62.791875 51.291875H416.88V344.88H62.791875Z"/>
</clipPath>
<clipPath id="clip_24">
<path transform="matrix(1,0,0,-1,0,360)" d="M62.791875 51.291875H416.88V344.88H62.791875Z"/>
</clipPath>
<clipPath id="clip_25">
<path transform="matrix(1,0,0,-1,0,360)" d="M62.791875 51.291875H416.88V344.88H62.791875Z"/>
</clipPath>
<clipPath id="clip_26">
<path transform="matrix(1,0,0,-1,0,360)" d="M62.791875 51.291875H416.88V344.88H62.791875Z"/>
</clipPath>
<clipPath id="clip_27">
<path transform="matrix(1,0,0,-1,0,360)" d="M62.791875 51.291875H416.88V344.88H62.791875Z"/>
</clipPath>
<clipPath id="clip_28">
<path transform="matrix(1,0,0,-1,0,360)" d="M62.791875 51.291875H416.88V344.88H62.791875Z"/>
</clipPath>
<clipPath id="clip_29">
<path transform="matrix(1,0,0,-1,0,360)" d="M62.791875 51.291875H416.88V344.88H62.791875Z"/>
</clipPath>
<clipPath id="clip_30">
<path transform="matrix(1,0,0,-1,0,360)" d="M62.791875 51.291875H416.88V344.88H62.791875Z"/>
</clipPath>
<clipPath id="clip_31">
<path transform="matrix(1,0,0,-1,0,360)" d="M62.791875 51.291875H416.88V344.88H62.791875Z"/>
</clipPath>
<clipPath id="clip_32">
<path transform="matrix(1,0,0,-1,0,360)" d="M62.791875 51.291875H416.88V344.88H62.791875Z"/>
</clipPath>
<clipPath id="clip_33">
<path transform="matrix(1,0,0,-1,0,360)" d="M62.791875 51.291875H416.88V344.88H62.791875Z"/>
</clipPath>
<clipPath id="clip_34">
<path transform="matrix(1,0,0,-1,0,360)" d="M62.791875 51.291875H416.88V344.88H62.791875Z"/>
</clipPath>
<clipPath id="clip_35">
<path transform="matrix(1,0,0,-1,0,360)" d="M62.791875 51.291875H416.88V344.88H62.791875Z"/>
</clipPath>
<clipPath id="clip_36">
<path transform="matrix(1,0,0,-1,0,360)" d="M62.791875 51.291875H416.88V344.88H62.791875Z"/>
</clipPath>
<clipPath id="clip_37">
<path transform="matrix(1,0,0,-1,0,360)" d="M62.791875 51.291875H416.88V344.88H62.791875Z"/>
</clipPath>
<clipPath id="clip_38">
<path transform="matrix(1,0,0,-1,0,360)" d="M62.791875 51.291875H416.88V344.88H62.791875Z"/>
</clipPath>
<clipPath id="clip_39">
<path transform="matrix(1,0,0,-1,0,360)" d="M62.791875 51.291875H416.88V344.88H62.791875Z"/>
</clipPath>
<clipPath id="clip_40">
<path transform="matrix(1,0,0,-1,0,360)" d="M62.791875 51.291875H416.88V344.88H62.791875Z"/>
</clipPath>
<clipPath id="clip_41">
<path transform="matrix(1,0,0,-1,0,360)" d="M62.791875 51.291875H416.88V344.88H62.791875Z"/>
</clipPath>
<clipPath id="clip_42">
<path transform="matrix(1,0,0,-1,0,360)" d="M62.791875 51.291875H416.88V344.88H62.791875Z"/>
</clipPath>
<clipPath id="clip_43">
<path transform="matrix(1,0,0,-1,0,360)" d="M62.791875 51.291875H416.88V344.88H62.791875Z"/>
</clipPath>
<clipPath id="clip_44">
<path transform="matrix(1,0,0,-1,0,360)" d="M62.791875 51.291875H416.88V344.88H62.791875Z"/>
</clipPath>
<clipPath id="clip_45">
<path transform="matrix(1,0,0,-1,0,360)" d="M62.791875 51.291875H416.88V344.88H62.791875Z"/>
</clipPath>
<clipPath id="clip_46">
<path transform="matrix(1,0,0,-1,0,360)" d="M62.791875 51.291875H416.88V344.88H62.791875Z"/>
</clipPath>
<clipPath id="clip_47">
<path transform="matrix(1,0,0,-1,0,360)" d="M62.791875 51.291875H416.88V344.88H62.791875Z"/>
</clipPath>
<clipPath id="clip_48">
<path transform="matrix(1,0,0,-1,0,360)" d="M62.791875 51.291875H416.88V344.88H62.791875Z"/>
</clipPath>
<clipPath id="clip_49">
<path transform="matrix(1,0,0,-1,0,360)" d="M62.791875 51.291875H416.88V344.88H62.791875Z"/>
</clipPath>
<clipPath id="clip_50">
<path transform="matrix(1,0,0,-1,0,360)" d="M62.791875 51.291875H416.88V344.88H62.791875Z"/>
</clipPath>
<clipPath id="clip_51">
<path transform="matrix(1,0,0,-1,0,360)" d="M62.791875 51.291875H416.88V344.88H62.791875Z"/>
</clipPath>
<clipPath id="clip_52">
<path transform="matrix(1,0,0,-1,0,360)" d="M62.791875 51.291875H416.88V344.88H62.791875Z"/>
</clipPath>
<clipPath id="clip_53">
<path transform="matrix(1,0,0,-1,0,360)" d="M62.791875 51.291875H416.88V344.88H62.791875Z"/>
</clipPath>
<clipPath id="clip_54">
<path transform="matrix(1,0,0,-1,0,360)" d="M62.791875 51.291875H416.88V344.88H62.791875Z"/>
</clipPath>
<clipPath id="clip_55">
<path transform="matrix(1,0,0,-1,0,360)" d="M62.791875 51.291875H416.88V344.88H62.791875Z"/>
</clipPath>
<clipPath id="clip_56">
<path transform="matrix(1,0,0,-1,0,360)" d="M62.791875 51.291875H416.88V344.88H62.791875Z"/>
</clipPath>
<clipPath id="clip_57">
<path transform="matrix(1,0,0,-1,0,360)" d="M62.791875 51.291875H416.88V344.88H62.791875Z"/>
</clipPath>
<clipPath id="clip_58">
<path transform="matrix(1,0,0,-1,0,360)" d="M62.791875 51.291875H416.88V344.88H62.791875Z"/>
</clipPath>
<clipPath id="clip_59">
<path transform="matrix(1,0,0,-1,0,360)" d="M62.791875 51.291875H416.88V344.88H62.791875Z"/>
</clipPath>
</defs>
<path transform="matrix(1,0,0,-1,0,360)" d="M0 0H432V360H0Z" fill="#ffffff"/>
<path transform="matrix(1,0,0,-1,0,360)" d="M62.791875 51.291875H416.88V344.88H62.791875Z" fill="#ffffff"/>
<g clip-path="url(#clip_1)">
<path transform="matrix(1,0,0,-1,0,360)" stroke-width=".75" stroke-linecap="square" stroke-linejoin="round" fill="none" stroke="#b0b0b0" stroke-opacity=".25" d="M96.13134 51.291875V344.88"/>
</g>
<path transform="matrix(1,0,0,-1,0,360)" d="M96.13134 51.291875V47.791875"/>
<path transform="matrix(1,0,0,-1,0,360)" stroke-width=".8" stroke-linecap="butt" stroke-linejoin="round" fill="none" stroke="#000000" d="M96.13134 51.291875V47.791875"/>
<text xml:space="preserve" transform="matrix(1 0 -0 1 92.31103 324.83314)" font-size="12" font-family="DejaVuSerif"><tspan y="0" x="0">0</tspan></text>
<g clip-path="url(#clip_2)">
<path transform="matrix(1,0,0,-1,0,360)" stroke-width=".75" stroke-linecap="square" stroke-linejoin="round" fill="none" stroke="#b0b0b0" stroke-opacity=".25" d="M153.61318 51.291875V344.88"/>
</g>
<path transform="matrix(1,0,0,-1,0,360)" d="M153.61318 51.291875V47.791875"/>
<path transform="matrix(1,0,0,-1,0,360)" stroke-width=".8" stroke-linecap="butt" stroke-linejoin="round" fill="none" stroke="#000000" d="M153.61318 51.291875V47.791875"/>
<text xml:space="preserve" transform="matrix(1 0 -0 1 145.97255 324.83314)" font-size="12" font-family="DejaVuSerif"><tspan y="0" x="0 7.6320006">20</tspan></text>
<g clip-path="url(#clip_3)">
<path transform="matrix(1,0,0,-1,0,360)" stroke-width=".75" stroke-linecap="square" stroke-linejoin="round" fill="none" stroke="#b0b0b0" stroke-opacity=".25" d="M211.09502 51.291875V344.88"/>
</g>
<path transform="matrix(1,0,0,-1,0,360)" d="M211.09502 51.291875V47.791875"/>
<path transform="matrix(1,0,0,-1,0,360)" stroke-width=".8" stroke-linecap="butt" stroke-linejoin="round" fill="none" stroke="#000000" d="M211.09502 51.291875V47.791875"/>
<text xml:space="preserve" transform="matrix(1 0 -0 1 203.45439 324.83314)" font-size="12" font-family="DejaVuSerif"><tspan y="0" x="0 7.6320006">40</tspan></text>
<g clip-path="url(#clip_4)">
<path transform="matrix(1,0,0,-1,0,360)" stroke-width=".75" stroke-linecap="square" stroke-linejoin="round" fill="none" stroke="#b0b0b0" stroke-opacity=".25" d="M268.57685 51.291875V344.88"/>
</g>
<path transform="matrix(1,0,0,-1,0,360)" d="M268.57685 51.291875V47.791875"/>
<path transform="matrix(1,0,0,-1,0,360)" stroke-width=".8" stroke-linecap="butt" stroke-linejoin="round" fill="none" stroke="#000000" d="M268.57685 51.291875V47.791875"/>
<text xml:space="preserve" transform="matrix(1 0 -0 1 260.93623 324.83314)" font-size="12" font-family="DejaVuSerif"><tspan y="0" x="0 7.6320006">60</tspan></text>
<g clip-path="url(#clip_5)">
<path transform="matrix(1,0,0,-1,0,360)" stroke-width=".75" stroke-linecap="square" stroke-linejoin="round" fill="none" stroke="#b0b0b0" stroke-opacity=".25" d="M326.0587 51.291875V344.88"/>
</g>
<path transform="matrix(1,0,0,-1,0,360)" d="M326.0587 51.291875V47.791875"/>
<path transform="matrix(1,0,0,-1,0,360)" stroke-width=".8" stroke-linecap="butt" stroke-linejoin="round" fill="none" stroke="#000000" d="M326.0587 51.291875V47.791875"/>
<text xml:space="preserve" transform="matrix(1 0 -0 1 318.41807 324.83314)" font-size="12" font-family="DejaVuSerif"><tspan y="0" x="0 7.6320006">80</tspan></text>
<g clip-path="url(#clip_6)">
<path transform="matrix(1,0,0,-1,0,360)" stroke-width=".75" stroke-linecap="square" stroke-linejoin="round" fill="none" stroke="#b0b0b0" stroke-opacity=".25" d="M383.54054 51.291875V344.88"/>
</g>
<path transform="matrix(1,0,0,-1,0,360)" d="M383.54054 51.291875V47.791875"/>
<path transform="matrix(1,0,0,-1,0,360)" stroke-width=".8" stroke-linecap="butt" stroke-linejoin="round" fill="none" stroke="#000000" d="M383.54054 51.291875V47.791875"/>
<text xml:space="preserve" transform="matrix(1 0 -0 1 372.0796 324.83314)" font-size="12" font-family="DejaVuSerif"><tspan y="0" x="0 7.6320006 15.264001">100</tspan></text>
<g clip-path="url(#clip_7)">
<path transform="matrix(1,0,0,-1,0,360)" stroke-width=".25" stroke-linecap="square" stroke-linejoin="round" fill="none" stroke="#b0b0b0" stroke-opacity=".15" d="M73.1386 51.291875V344.88"/>
</g>
<path transform="matrix(1,0,0,-1,0,360)" d="M73.1386 51.291875V49.291875"/>
<path transform="matrix(1,0,0,-1,0,360)" stroke-width=".6" stroke-linecap="butt" stroke-linejoin="round" fill="none" stroke="#000000" d="M73.1386 51.291875V49.291875"/>
<g clip-path="url(#clip_8)">
<path transform="matrix(1,0,0,-1,0,360)" stroke-width=".25" stroke-linecap="square" stroke-linejoin="round" fill="none" stroke="#b0b0b0" stroke-opacity=".15" d="M84.63497 51.291875V344.88"/>
</g>
<path transform="matrix(1,0,0,-1,0,360)" d="M84.63497 51.291875V49.291875"/>
<path transform="matrix(1,0,0,-1,0,360)" stroke-width=".6" stroke-linecap="butt" stroke-linejoin="round" fill="none" stroke="#000000" d="M84.63497 51.291875V49.291875"/>
<g clip-path="url(#clip_9)">
<path transform="matrix(1,0,0,-1,0,360)" stroke-width=".25" stroke-linecap="square" stroke-linejoin="round" fill="none" stroke="#b0b0b0" stroke-opacity=".15" d="M107.62771 51.291875V344.88"/>
</g>
<path transform="matrix(1,0,0,-1,0,360)" d="M107.62771 51.291875V49.291875"/>
<path transform="matrix(1,0,0,-1,0,360)" stroke-width=".6" stroke-linecap="butt" stroke-linejoin="round" fill="none" stroke="#000000" d="M107.62771 51.291875V49.291875"/>
<g clip-path="url(#clip_10)">
<path transform="matrix(1,0,0,-1,0,360)" stroke-width=".25" stroke-linecap="square" stroke-linejoin="round" fill="none" stroke="#b0b0b0" stroke-opacity=".15" d="M119.12408 51.291875V344.88"/>
</g>
<path transform="matrix(1,0,0,-1,0,360)" d="M119.12408 51.291875V49.291875"/>
<path transform="matrix(1,0,0,-1,0,360)" stroke-width=".6" stroke-linecap="butt" stroke-linejoin="round" fill="none" stroke="#000000" d="M119.12408 51.291875V49.291875"/>
<g clip-path="url(#clip_11)">
<path transform="matrix(1,0,0,-1,0,360)" stroke-width=".25" stroke-linecap="square" stroke-linejoin="round" fill="none" stroke="#b0b0b0" stroke-opacity=".15" d="M130.62044 51.291875V344.88"/>
</g>
<path transform="matrix(1,0,0,-1,0,360)" d="M130.62044 51.291875V49.291875"/>
<path transform="matrix(1,0,0,-1,0,360)" stroke-width=".6" stroke-linecap="butt" stroke-linejoin="round" fill="none" stroke="#000000" d="M130.62044 51.291875V49.291875"/>
<g clip-path="url(#clip_12)">
<path transform="matrix(1,0,0,-1,0,360)" stroke-width=".25" stroke-linecap="square" stroke-linejoin="round" fill="none" stroke="#b0b0b0" stroke-opacity=".15" d="M142.1168 51.291875V344.88"/>
</g>
<path transform="matrix(1,0,0,-1,0,360)" d="M142.1168 51.291875V49.291875"/>
<path transform="matrix(1,0,0,-1,0,360)" stroke-width=".6" stroke-linecap="butt" stroke-linejoin="round" fill="none" stroke="#000000" d="M142.1168 51.291875V49.291875"/>
<g clip-path="url(#clip_13)">
<path transform="matrix(1,0,0,-1,0,360)" stroke-width=".25" stroke-linecap="square" stroke-linejoin="round" fill="none" stroke="#b0b0b0" stroke-opacity=".15" d="M165.10955 51.291875V344.88"/>
</g>
<path transform="matrix(1,0,0,-1,0,360)" d="M165.10955 51.291875V49.291875"/>
<path transform="matrix(1,0,0,-1,0,360)" stroke-width=".6" stroke-linecap="butt" stroke-linejoin="round" fill="none" stroke="#000000" d="M165.10955 51.291875V49.291875"/>
<g clip-path="url(#clip_14)">
<path transform="matrix(1,0,0,-1,0,360)" stroke-width=".25" stroke-linecap="square" stroke-linejoin="round" fill="none" stroke="#b0b0b0" stroke-opacity=".15" d="M176.60591 51.291875V344.88"/>
</g>
<path transform="matrix(1,0,0,-1,0,360)" d="M176.60591 51.291875V49.291875"/>
<path transform="matrix(1,0,0,-1,0,360)" stroke-width=".6" stroke-linecap="butt" stroke-linejoin="round" fill="none" stroke="#000000" d="M176.60591 51.291875V49.291875"/>
<g clip-path="url(#clip_15)">
<path transform="matrix(1,0,0,-1,0,360)" stroke-width=".25" stroke-linecap="square" stroke-linejoin="round" fill="none" stroke="#b0b0b0" stroke-opacity=".15" d="M188.10228 51.291875V344.88"/>
</g>
<path transform="matrix(1,0,0,-1,0,360)" d="M188.10228 51.291875V49.291875"/>
<path transform="matrix(1,0,0,-1,0,360)" stroke-width=".6" stroke-linecap="butt" stroke-linejoin="round" fill="none" stroke="#000000" d="M188.10228 51.291875V49.291875"/>
<g clip-path="url(#clip_16)">
<path transform="matrix(1,0,0,-1,0,360)" stroke-width=".25" stroke-linecap="square" stroke-linejoin="round" fill="none" stroke="#b0b0b0" stroke-opacity=".15" d="M199.59865 51.291875V344.88"/>
</g>
<path transform="matrix(1,0,0,-1,0,360)" d="M199.59865 51.291875V49.291875"/>
<path transform="matrix(1,0,0,-1,0,360)" stroke-width=".6" stroke-linecap="butt" stroke-linejoin="round" fill="none" stroke="#000000" d="M199.59865 51.291875V49.291875"/>
<g clip-path="url(#clip_17)">
<path transform="matrix(1,0,0,-1,0,360)" stroke-width=".25" stroke-linecap="square" stroke-linejoin="round" fill="none" stroke="#b0b0b0" stroke-opacity=".15" d="M222.59139 51.291875V344.88"/>
</g>
<path transform="matrix(1,0,0,-1,0,360)" d="M222.59139 51.291875V49.291875"/>
<path transform="matrix(1,0,0,-1,0,360)" stroke-width=".6" stroke-linecap="butt" stroke-linejoin="round" fill="none" stroke="#000000" d="M222.59139 51.291875V49.291875"/>
<g clip-path="url(#clip_18)">
<path transform="matrix(1,0,0,-1,0,360)" stroke-width=".25" stroke-linecap="square" stroke-linejoin="round" fill="none" stroke="#b0b0b0" stroke-opacity=".15" d="M234.08776 51.291875V344.88"/>
</g>
<path transform="matrix(1,0,0,-1,0,360)" d="M234.08776 51.291875V49.291875"/>
<path transform="matrix(1,0,0,-1,0,360)" stroke-width=".6" stroke-linecap="butt" stroke-linejoin="round" fill="none" stroke="#000000" d="M234.08776 51.291875V49.291875"/>
<g clip-path="url(#clip_19)">
<path transform="matrix(1,0,0,-1,0,360)" stroke-width=".25" stroke-linecap="square" stroke-linejoin="round" fill="none" stroke="#b0b0b0" stroke-opacity=".15" d="M245.58412 51.291875V344.88"/>
</g>
<path transform="matrix(1,0,0,-1,0,360)" d="M245.58412 51.291875V49.291875"/>
<path transform="matrix(1,0,0,-1,0,360)" stroke-width=".6" stroke-linecap="butt" stroke-linejoin="round" fill="none" stroke="#000000" d="M245.58412 51.291875V49.291875"/>
<g clip-path="url(#clip_20)">
<path transform="matrix(1,0,0,-1,0,360)" stroke-width=".25" stroke-linecap="square" stroke-linejoin="round" fill="none" stroke="#b0b0b0" stroke-opacity=".15" d="M257.08049 51.291875V344.88"/>
</g>
<path transform="matrix(1,0,0,-1,0,360)" d="M257.08049 51.291875V49.291875"/>
<path transform="matrix(1,0,0,-1,0,360)" stroke-width=".6" stroke-linecap="butt" stroke-linejoin="round" fill="none" stroke="#000000" d="M257.08049 51.291875V49.291875"/>
<g clip-path="url(#clip_21)">
<path transform="matrix(1,0,0,-1,0,360)" stroke-width=".25" stroke-linecap="square" stroke-linejoin="round" fill="none" stroke="#b0b0b0" stroke-opacity=".15" d="M280.0732 51.291875V344.88"/>
</g>
<path transform="matrix(1,0,0,-1,0,360)" d="M280.0732 51.291875V49.291875"/>
<path transform="matrix(1,0,0,-1,0,360)" stroke-width=".6" stroke-linecap="butt" stroke-linejoin="round" fill="none" stroke="#000000" d="M280.0732 51.291875V49.291875"/>
<g clip-path="url(#clip_22)">
<path transform="matrix(1,0,0,-1,0,360)" stroke-width=".25" stroke-linecap="square" stroke-linejoin="round" fill="none" stroke="#b0b0b0" stroke-opacity=".15" d="M291.56959 51.291875V344.88"/>
</g>
<path transform="matrix(1,0,0,-1,0,360)" d="M291.56959 51.291875V49.291875"/>
<path transform="matrix(1,0,0,-1,0,360)" stroke-width=".6" stroke-linecap="butt" stroke-linejoin="round" fill="none" stroke="#000000" d="M291.56959 51.291875V49.291875"/>
<g clip-path="url(#clip_23)">
<path transform="matrix(1,0,0,-1,0,360)" stroke-width=".25" stroke-linecap="square" stroke-linejoin="round" fill="none" stroke="#b0b0b0" stroke-opacity=".15" d="M303.06596 51.291875V344.88"/>
</g>
<path transform="matrix(1,0,0,-1,0,360)" d="M303.06596 51.291875V49.291875"/>
<path transform="matrix(1,0,0,-1,0,360)" stroke-width=".6" stroke-linecap="butt" stroke-linejoin="round" fill="none" stroke="#000000" d="M303.06596 51.291875V49.291875"/>
<g clip-path="url(#clip_24)">
<path transform="matrix(1,0,0,-1,0,360)" stroke-width=".25" stroke-linecap="square" stroke-linejoin="round" fill="none" stroke="#b0b0b0" stroke-opacity=".15" d="M314.56233 51.291875V344.88"/>
</g>
<path transform="matrix(1,0,0,-1,0,360)" d="M314.56233 51.291875V49.291875"/>
<path transform="matrix(1,0,0,-1,0,360)" stroke-width=".6" stroke-linecap="butt" stroke-linejoin="round" fill="none" stroke="#000000" d="M314.56233 51.291875V49.291875"/>
<g clip-path="url(#clip_25)">
<path transform="matrix(1,0,0,-1,0,360)" stroke-width=".25" stroke-linecap="square" stroke-linejoin="round" fill="none" stroke="#b0b0b0" stroke-opacity=".15" d="M337.55506 51.291875V344.88"/>
</g>
<path transform="matrix(1,0,0,-1,0,360)" d="M337.55506 51.291875V49.291875"/>
<path transform="matrix(1,0,0,-1,0,360)" stroke-width=".6" stroke-linecap="butt" stroke-linejoin="round" fill="none" stroke="#000000" d="M337.55506 51.291875V49.291875"/>
<g clip-path="url(#clip_26)">
<path transform="matrix(1,0,0,-1,0,360)" stroke-width=".25" stroke-linecap="square" stroke-linejoin="round" fill="none" stroke="#b0b0b0" stroke-opacity=".15" d="M349.05143 51.291875V344.88"/>
</g>
<path transform="matrix(1,0,0,-1,0,360)" d="M349.05143 51.291875V49.291875"/>
<path transform="matrix(1,0,0,-1,0,360)" stroke-width=".6" stroke-linecap="butt" stroke-linejoin="round" fill="none" stroke="#000000" d="M349.05143 51.291875V49.291875"/>
<g clip-path="url(#clip_27)">
<path transform="matrix(1,0,0,-1,0,360)" stroke-width=".25" stroke-linecap="square" stroke-linejoin="round" fill="none" stroke="#b0b0b0" stroke-opacity=".15" d="M360.5478 51.291875V344.88"/>
</g>
<path transform="matrix(1,0,0,-1,0,360)" d="M360.5478 51.291875V49.291875"/>
<path transform="matrix(1,0,0,-1,0,360)" stroke-width=".6" stroke-linecap="butt" stroke-linejoin="round" fill="none" stroke="#000000" d="M360.5478 51.291875V49.291875"/>
<g clip-path="url(#clip_28)">
<path transform="matrix(1,0,0,-1,0,360)" stroke-width=".25" stroke-linecap="square" stroke-linejoin="round" fill="none" stroke="#b0b0b0" stroke-opacity=".15" d="M372.04417 51.291875V344.88"/>
</g>
<path transform="matrix(1,0,0,-1,0,360)" d="M372.04417 51.291875V49.291875"/>
<path transform="matrix(1,0,0,-1,0,360)" stroke-width=".6" stroke-linecap="butt" stroke-linejoin="round" fill="none" stroke="#000000" d="M372.04417 51.291875V49.291875"/>
<g clip-path="url(#clip_29)">
<path transform="matrix(1,0,0,-1,0,360)" stroke-width=".25" stroke-linecap="square" stroke-linejoin="round" fill="none" stroke="#b0b0b0" stroke-opacity=".15" d="M395.0369 51.291875V344.88"/>
</g>
<path transform="matrix(1,0,0,-1,0,360)" d="M395.0369 51.291875V49.291875"/>
<path transform="matrix(1,0,0,-1,0,360)" stroke-width=".6" stroke-linecap="butt" stroke-linejoin="round" fill="none" stroke="#000000" d="M395.0369 51.291875V49.291875"/>
<g clip-path="url(#clip_30)">
<path transform="matrix(1,0,0,-1,0,360)" stroke-width=".25" stroke-linecap="square" stroke-linejoin="round" fill="none" stroke="#b0b0b0" stroke-opacity=".15" d="M406.53327 51.291875V344.88"/>
</g>
<path transform="matrix(1,0,0,-1,0,360)" d="M406.53327 51.291875V49.291875"/>
<path transform="matrix(1,0,0,-1,0,360)" stroke-width=".6" stroke-linecap="butt" stroke-linejoin="round" fill="none" stroke="#000000" d="M406.53327 51.291875V49.291875"/>
<text xml:space="preserve" transform="matrix(1 0 -0 1 162.0625 341.97377)" font-size="14" font-family="DejaVuSerif"><tspan y="0" x="0 11.4800009 20.440003 25.620003 34.636 41.818 50.302003 58.646005 64.274 68.754009 77.18201 86.198009 93.380008 97.86001 106.14801 114.058017 122.346019 126.82602 131.27802 136.73802 150.03803">Obfuskationslevel (%)</tspan></text>
<g clip-path="url(#clip_31)">
<path transform="matrix(1,0,0,-1,0,360)" stroke-width=".75" stroke-linecap="square" stroke-linejoin="round" fill="none" stroke="#b0b0b0" stroke-opacity=".25" d="M62.791875 51.291875H416.88"/>
</g>
<path transform="matrix(1,0,0,-1,0,360)" d="M62.791875 51.291875H59.291875"/>
<path transform="matrix(1,0,0,-1,0,360)" stroke-width=".8" stroke-linecap="butt" stroke-linejoin="round" fill="none" stroke="#000000" d="M62.791875 51.291875H59.291875"/>
<text xml:space="preserve" transform="matrix(1 0 -0 1 48.15125 313.27064)" font-size="12" font-family="DejaVuSerif"><tspan y="0" x="0">0</tspan></text>
<g clip-path="url(#clip_32)">
<path transform="matrix(1,0,0,-1,0,360)" stroke-width=".75" stroke-linecap="square" stroke-linejoin="round" fill="none" stroke="#b0b0b0" stroke-opacity=".25" d="M62.791875 104.67153H416.88"/>
</g>
<path transform="matrix(1,0,0,-1,0,360)" d="M62.791875 104.67153H59.291875"/>
<path transform="matrix(1,0,0,-1,0,360)" stroke-width=".8" stroke-linecap="butt" stroke-linejoin="round" fill="none" stroke="#000000" d="M62.791875 104.67153H59.291875"/>
<text xml:space="preserve" transform="matrix(1 0 -0 1 40.510625 259.89097)" font-size="12" font-family="DejaVuSerif"><tspan y="0" x="0 7.6320006">20</tspan></text>
<g clip-path="url(#clip_33)">
<path transform="matrix(1,0,0,-1,0,360)" stroke-width=".75" stroke-linecap="square" stroke-linejoin="round" fill="none" stroke="#b0b0b0" stroke-opacity=".25" d="M62.791875 158.0512H416.88"/>
</g>
<path transform="matrix(1,0,0,-1,0,360)" d="M62.791875 158.0512H59.291875"/>
<path transform="matrix(1,0,0,-1,0,360)" stroke-width=".8" stroke-linecap="butt" stroke-linejoin="round" fill="none" stroke="#000000" d="M62.791875 158.0512H59.291875"/>
<text xml:space="preserve" transform="matrix(1 0 -0 1 40.510625 206.5113)" font-size="12" font-family="DejaVuSerif"><tspan y="0" x="0 7.6320006">40</tspan></text>
<g clip-path="url(#clip_34)">
<path transform="matrix(1,0,0,-1,0,360)" stroke-width=".75" stroke-linecap="square" stroke-linejoin="round" fill="none" stroke="#b0b0b0" stroke-opacity=".25" d="M62.791875 211.43085H416.88"/>
</g>
<path transform="matrix(1,0,0,-1,0,360)" d="M62.791875 211.43085H59.291875"/>
<path transform="matrix(1,0,0,-1,0,360)" stroke-width=".8" stroke-linecap="butt" stroke-linejoin="round" fill="none" stroke="#000000" d="M62.791875 211.43085H59.291875"/>
<text xml:space="preserve" transform="matrix(1 0 -0 1 40.510625 153.13166)" font-size="12" font-family="DejaVuSerif"><tspan y="0" x="0 7.6320006">60</tspan></text>
<g clip-path="url(#clip_35)">
<path transform="matrix(1,0,0,-1,0,360)" stroke-width=".75" stroke-linecap="square" stroke-linejoin="round" fill="none" stroke="#b0b0b0" stroke-opacity=".25" d="M62.791875 264.81053H416.88"/>
</g>
<path transform="matrix(1,0,0,-1,0,360)" d="M62.791875 264.81053H59.291875"/>
<path transform="matrix(1,0,0,-1,0,360)" stroke-width=".8" stroke-linecap="butt" stroke-linejoin="round" fill="none" stroke="#000000" d="M62.791875 264.81053H59.291875"/>
<text xml:space="preserve" transform="matrix(1 0 -0 1 40.510625 99.75198)" font-size="12" font-family="DejaVuSerif"><tspan y="0" x="0 7.6320006">80</tspan></text>
<g clip-path="url(#clip_36)">
<path transform="matrix(1,0,0,-1,0,360)" stroke-width=".75" stroke-linecap="square" stroke-linejoin="round" fill="none" stroke="#b0b0b0" stroke-opacity=".25" d="M62.791875 318.19017H416.88"/>
</g>
<path transform="matrix(1,0,0,-1,0,360)" d="M62.791875 318.19017H59.291875"/>
<path transform="matrix(1,0,0,-1,0,360)" stroke-width=".8" stroke-linecap="butt" stroke-linejoin="round" fill="none" stroke="#000000" d="M62.791875 318.19017H59.291875"/>
<text xml:space="preserve" transform="matrix(1 0 -0 1 32.87 46.372346)" font-size="12" font-family="DejaVuSerif"><tspan y="0" x="0 7.6320006 15.264001">100</tspan></text>
<g clip-path="url(#clip_37)">
<path transform="matrix(1,0,0,-1,0,360)" stroke-width=".25" stroke-linecap="square" stroke-linejoin="round" fill="none" stroke="#b0b0b0" stroke-opacity=".15" d="M62.791875 64.63679H416.88"/>
</g>
<path transform="matrix(1,0,0,-1,0,360)" d="M62.791875 64.63679H60.791875"/>
<path transform="matrix(1,0,0,-1,0,360)" stroke-width=".6" stroke-linecap="butt" stroke-linejoin="round" fill="none" stroke="#000000" d="M62.791875 64.63679H60.791875"/>
<g clip-path="url(#clip_38)">
<path transform="matrix(1,0,0,-1,0,360)" stroke-width=".25" stroke-linecap="square" stroke-linejoin="round" fill="none" stroke="#b0b0b0" stroke-opacity=".15" d="M62.791875 77.981708H416.88"/>
</g>
<path transform="matrix(1,0,0,-1,0,360)" d="M62.791875 77.981708H60.791875"/>
<path transform="matrix(1,0,0,-1,0,360)" stroke-width=".6" stroke-linecap="butt" stroke-linejoin="round" fill="none" stroke="#000000" d="M62.791875 77.981708H60.791875"/>
<g clip-path="url(#clip_39)">
<path transform="matrix(1,0,0,-1,0,360)" stroke-width=".25" stroke-linecap="square" stroke-linejoin="round" fill="none" stroke="#b0b0b0" stroke-opacity=".15" d="M62.791875 91.32662H416.88"/>
</g>
<path transform="matrix(1,0,0,-1,0,360)" d="M62.791875 91.32662H60.791875"/>
<path transform="matrix(1,0,0,-1,0,360)" stroke-width=".6" stroke-linecap="butt" stroke-linejoin="round" fill="none" stroke="#000000" d="M62.791875 91.32662H60.791875"/>
<g clip-path="url(#clip_40)">
<path transform="matrix(1,0,0,-1,0,360)" stroke-width=".25" stroke-linecap="square" stroke-linejoin="round" fill="none" stroke="#b0b0b0" stroke-opacity=".15" d="M62.791875 118.01645H416.88"/>
</g>
<path transform="matrix(1,0,0,-1,0,360)" d="M62.791875 118.01645H60.791875"/>
<path transform="matrix(1,0,0,-1,0,360)" stroke-width=".6" stroke-linecap="butt" stroke-linejoin="round" fill="none" stroke="#000000" d="M62.791875 118.01645H60.791875"/>
<g clip-path="url(#clip_41)">
<path transform="matrix(1,0,0,-1,0,360)" stroke-width=".25" stroke-linecap="square" stroke-linejoin="round" fill="none" stroke="#b0b0b0" stroke-opacity=".15" d="M62.791875 131.36136H416.88"/>
</g>
<path transform="matrix(1,0,0,-1,0,360)" d="M62.791875 131.36136H60.791875"/>
<path transform="matrix(1,0,0,-1,0,360)" stroke-width=".6" stroke-linecap="butt" stroke-linejoin="round" fill="none" stroke="#000000" d="M62.791875 131.36136H60.791875"/>
<g clip-path="url(#clip_42)">
<path transform="matrix(1,0,0,-1,0,360)" stroke-width=".25" stroke-linecap="square" stroke-linejoin="round" fill="none" stroke="#b0b0b0" stroke-opacity=".15" d="M62.791875 144.70629H416.88"/>
</g>
<path transform="matrix(1,0,0,-1,0,360)" d="M62.791875 144.70629H60.791875"/>
<path transform="matrix(1,0,0,-1,0,360)" stroke-width=".6" stroke-linecap="butt" stroke-linejoin="round" fill="none" stroke="#000000" d="M62.791875 144.70629H60.791875"/>
<g clip-path="url(#clip_43)">
<path transform="matrix(1,0,0,-1,0,360)" stroke-width=".25" stroke-linecap="square" stroke-linejoin="round" fill="none" stroke="#b0b0b0" stroke-opacity=".15" d="M62.791875 171.3961H416.88"/>
</g>
<path transform="matrix(1,0,0,-1,0,360)" d="M62.791875 171.3961H60.791875"/>
<path transform="matrix(1,0,0,-1,0,360)" stroke-width=".6" stroke-linecap="butt" stroke-linejoin="round" fill="none" stroke="#000000" d="M62.791875 171.3961H60.791875"/>
<g clip-path="url(#clip_44)">
<path transform="matrix(1,0,0,-1,0,360)" stroke-width=".25" stroke-linecap="square" stroke-linejoin="round" fill="none" stroke="#b0b0b0" stroke-opacity=".15" d="M62.791875 184.74103H416.88"/>
</g>
<path transform="matrix(1,0,0,-1,0,360)" d="M62.791875 184.74103H60.791875"/>
<path transform="matrix(1,0,0,-1,0,360)" stroke-width=".6" stroke-linecap="butt" stroke-linejoin="round" fill="none" stroke="#000000" d="M62.791875 184.74103H60.791875"/>
<g clip-path="url(#clip_45)">
<path transform="matrix(1,0,0,-1,0,360)" stroke-width=".25" stroke-linecap="square" stroke-linejoin="round" fill="none" stroke="#b0b0b0" stroke-opacity=".15" d="M62.791875 198.08594H416.88"/>
</g>
<path transform="matrix(1,0,0,-1,0,360)" d="M62.791875 198.08594H60.791875"/>
<path transform="matrix(1,0,0,-1,0,360)" stroke-width=".6" stroke-linecap="butt" stroke-linejoin="round" fill="none" stroke="#000000" d="M62.791875 198.08594H60.791875"/>
<g clip-path="url(#clip_46)">
<path transform="matrix(1,0,0,-1,0,360)" stroke-width=".25" stroke-linecap="square" stroke-linejoin="round" fill="none" stroke="#b0b0b0" stroke-opacity=".15" d="M62.791875 224.77577H416.88"/>
</g>
<path transform="matrix(1,0,0,-1,0,360)" d="M62.791875 224.77577H60.791875"/>
<path transform="matrix(1,0,0,-1,0,360)" stroke-width=".6" stroke-linecap="butt" stroke-linejoin="round" fill="none" stroke="#000000" d="M62.791875 224.77577H60.791875"/>
<g clip-path="url(#clip_47)">
<path transform="matrix(1,0,0,-1,0,360)" stroke-width=".25" stroke-linecap="square" stroke-linejoin="round" fill="none" stroke="#b0b0b0" stroke-opacity=".15" d="M62.791875 238.12068H416.88"/>
</g>
<path transform="matrix(1,0,0,-1,0,360)" d="M62.791875 238.12068H60.791875"/>
<path transform="matrix(1,0,0,-1,0,360)" stroke-width=".6" stroke-linecap="butt" stroke-linejoin="round" fill="none" stroke="#000000" d="M62.791875 238.12068H60.791875"/>
<g clip-path="url(#clip_48)">
<path transform="matrix(1,0,0,-1,0,360)" stroke-width=".25" stroke-linecap="square" stroke-linejoin="round" fill="none" stroke="#b0b0b0" stroke-opacity=".15" d="M62.791875 251.46559H416.88"/>
</g>
<path transform="matrix(1,0,0,-1,0,360)" d="M62.791875 251.46559H60.791875"/>
<path transform="matrix(1,0,0,-1,0,360)" stroke-width=".6" stroke-linecap="butt" stroke-linejoin="round" fill="none" stroke="#000000" d="M62.791875 251.46559H60.791875"/>
<g clip-path="url(#clip_49)">
<path transform="matrix(1,0,0,-1,0,360)" stroke-width=".25" stroke-linecap="square" stroke-linejoin="round" fill="none" stroke="#b0b0b0" stroke-opacity=".15" d="M62.791875 278.15544H416.88"/>
</g>
<path transform="matrix(1,0,0,-1,0,360)" d="M62.791875 278.15544H60.791875"/>
<path transform="matrix(1,0,0,-1,0,360)" stroke-width=".6" stroke-linecap="butt" stroke-linejoin="round" fill="none" stroke="#000000" d="M62.791875 278.15544H60.791875"/>
<g clip-path="url(#clip_50)">
<path transform="matrix(1,0,0,-1,0,360)" stroke-width=".25" stroke-linecap="square" stroke-linejoin="round" fill="none" stroke="#b0b0b0" stroke-opacity=".15" d="M62.791875 291.50035H416.88"/>
</g>
<path transform="matrix(1,0,0,-1,0,360)" d="M62.791875 291.50035H60.791875"/>
<path transform="matrix(1,0,0,-1,0,360)" stroke-width=".6" stroke-linecap="butt" stroke-linejoin="round" fill="none" stroke="#000000" d="M62.791875 291.50035H60.791875"/>
<g clip-path="url(#clip_51)">
<path transform="matrix(1,0,0,-1,0,360)" stroke-width=".25" stroke-linecap="square" stroke-linejoin="round" fill="none" stroke="#b0b0b0" stroke-opacity=".15" d="M62.791875 304.84526H416.88"/>
</g>
<path transform="matrix(1,0,0,-1,0,360)" d="M62.791875 304.84526H60.791875"/>
<path transform="matrix(1,0,0,-1,0,360)" stroke-width=".6" stroke-linecap="butt" stroke-linejoin="round" fill="none" stroke="#000000" d="M62.791875 304.84526H60.791875"/>
<g clip-path="url(#clip_52)">
<path transform="matrix(1,0,0,-1,0,360)" stroke-width=".25" stroke-linecap="square" stroke-linejoin="round" fill="none" stroke="#b0b0b0" stroke-opacity=".15" d="M62.791875 331.5351H416.88"/>
</g>
<path transform="matrix(1,0,0,-1,0,360)" d="M62.791875 331.5351H60.791875"/>
<path transform="matrix(1,0,0,-1,0,360)" stroke-width=".6" stroke-linecap="butt" stroke-linejoin="round" fill="none" stroke="#000000" d="M62.791875 331.5351H60.791875"/>
<g clip-path="url(#clip_53)">
<path transform="matrix(1,0,0,-1,0,360)" stroke-width=".25" stroke-linecap="square" stroke-linejoin="round" fill="none" stroke="#b0b0b0" stroke-opacity=".15" d="M62.791875 344.88H416.88"/>
</g>
<path transform="matrix(1,0,0,-1,0,360)" d="M62.791875 344.88H60.791875"/>
<path transform="matrix(1,0,0,-1,0,360)" stroke-width=".6" stroke-linecap="butt" stroke-linejoin="round" fill="none" stroke="#000000" d="M62.791875 344.88H60.791875"/>
<text xml:space="preserve" transform="matrix(0 -1 1 0 25.760626 269.09376)" font-size="14" font-family="DejaVuSerif"><tspan y="0" x="0 9.2960009 16.935751 27.04375 41.379755 45.831754 54.09163 62.37963 69.56163 75.18963 84.14963 92.43763 99.61963 105.24763 113.53563 122.55163 131.56763 140.58364 149.54364 156.72565 163.41765 171.76165 177.38965 185.67765 190.12964 195.58965 208.88965">LLVM Testbestehungsrate (%)</tspan></text>
<path transform="matrix(1,0,0,-1,0,360)" stroke-width=".8" stroke-linecap="square" stroke-miterlimit="10" stroke-linejoin="miter" fill="none" stroke="#000000" d="M62.791875 51.291875V344.88"/>
<path transform="matrix(1,0,0,-1,0,360)" stroke-width=".8" stroke-linecap="square" stroke-miterlimit="10" stroke-linejoin="miter" fill="none" stroke="#000000" d="M416.88 51.291875V344.88"/>
<path transform="matrix(1,0,0,-1,0,360)" stroke-width=".8" stroke-linecap="square" stroke-miterlimit="10" stroke-linejoin="miter" fill="none" stroke="#000000" d="M62.791875 51.291875H416.88"/>
<path transform="matrix(1,0,0,-1,0,360)" stroke-width=".8" stroke-linecap="square" stroke-miterlimit="10" stroke-linejoin="miter" fill="none" stroke="#000000" d="M62.791875 344.88H416.88"/>
<g clip-path="url(#clip_54)">
<path transform="matrix(1,0,0,-1,0,360)" d="M78.88679 51.291875H113.37589V318.19017H78.88679Z" fill="#77b5b6"/>
<path transform="matrix(1,0,0,-1,0,360)" stroke-width="1.5" stroke-linecap="butt" stroke-miterlimit="10" stroke-linejoin="miter" fill="none" stroke="#378d94" d="M78.88679 51.291875H113.37589V318.19017H78.88679Z"/>
</g>
<g clip-path="url(#clip_55)">
<path transform="matrix(1,0,0,-1,0,360)" d="M136.36862 51.291875H170.85773V318.19017H136.36862Z" fill="#77b5b6"/>
<path transform="matrix(1,0,0,-1,0,360)" stroke-width="1.5" stroke-linecap="butt" stroke-miterlimit="10" stroke-linejoin="miter" fill="none" stroke="#378d94" d="M136.36862 51.291875H170.85773V318.19017H136.36862Z"/>
</g>
<g clip-path="url(#clip_56)">
<path transform="matrix(1,0,0,-1,0,360)" d="M193.85047 51.291875H228.33957V318.19017H193.85047Z" fill="#77b5b6"/>
<path transform="matrix(1,0,0,-1,0,360)" stroke-width="1.5" stroke-linecap="butt" stroke-miterlimit="10" stroke-linejoin="miter" fill="none" stroke="#378d94" d="M193.85047 51.291875H228.33957V318.19017H193.85047Z"/>
</g>
<g clip-path="url(#clip_57)">
<path transform="matrix(1,0,0,-1,0,360)" d="M251.3323 51.291875H285.8214V318.19017H251.3323Z" fill="#77b5b6"/>
<path transform="matrix(1,0,0,-1,0,360)" stroke-width="1.5" stroke-linecap="butt" stroke-miterlimit="10" stroke-linejoin="miter" fill="none" stroke="#378d94" d="M251.3323 51.291875H285.8214V318.19017H251.3323Z"/>
</g>
<g clip-path="url(#clip_58)">
<path transform="matrix(1,0,0,-1,0,360)" d="M308.81416 51.291875H343.30326V318.19017H308.81416Z" fill="#77b5b6"/>
<path transform="matrix(1,0,0,-1,0,360)" stroke-width="1.5" stroke-linecap="butt" stroke-miterlimit="10" stroke-linejoin="miter" fill="none" stroke="#378d94" d="M308.81416 51.291875H343.30326V318.19017H308.81416Z"/>
</g>
<g clip-path="url(#clip_59)">
<path transform="matrix(1,0,0,-1,0,360)" d="M366.296 51.291875H400.7851V318.19017H366.296Z" fill="#77b5b6"/>
<path transform="matrix(1,0,0,-1,0,360)" stroke-width="1.5" stroke-linecap="butt" stroke-miterlimit="10" stroke-linejoin="miter" fill="none" stroke="#378d94" d="M366.296 51.291875H400.7851V318.19017H366.296Z"/>
</g>
<text xml:space="preserve" transform="matrix(1 0 -0 1 73.678218 34.190614)" font-size="11" font-family="DejaVuSerif"><tspan y="0" x="0 7.6560008 15.312001 22.968003 26.796004 34.452005">100.0%</tspan></text>
<text xml:space="preserve" transform="matrix(1 0 -0 1 131.16005 34.190614)" font-size="11" font-family="DejaVuSerif"><tspan y="0" x="0 7.6560008 15.312001 22.968003 26.796004 34.452005">100.0%</tspan></text>
<text xml:space="preserve" transform="matrix(1 0 -0 1 188.64189 34.190614)" font-size="11" font-family="DejaVuSerif"><tspan y="0" x="0 7.6560008 15.312001 22.968003 26.796004 34.452005">100.0%</tspan></text>
<text xml:space="preserve" transform="matrix(1 0 -0 1 246.12374 34.190614)" font-size="11" font-family="DejaVuSerif"><tspan y="0" x="0 7.6560008 15.312001 22.968003 26.796004 34.452005">100.0%</tspan></text>
<text xml:space="preserve" transform="matrix(1 0 -0 1 303.60557 34.190614)" font-size="11" font-family="DejaVuSerif"><tspan y="0" x="0 7.6560008 15.312001 22.968003 26.796004 34.452005">100.0%</tspan></text>
<text xml:space="preserve" transform="matrix(1 0 -0 1 361.0874 34.190614)" font-size="11" font-family="DejaVuSerif"><tspan y="0" x="0 7.6560008 15.312001 22.968003 26.796004 34.452005">100.0%</tspan></text>
</svg>
